G04 #@! TF.GenerationSoftware,KiCad,Pcbnew,(5.0.0)*
G04 #@! TF.CreationDate,2019-04-19T16:08:10+03:00*
G04 #@! TF.ProjectId,564__1__DG409L,3536341A1F31125F44473430394C2E6B,rev?*
G04 #@! TF.SameCoordinates,Original*
G04 #@! TF.FileFunction,Soldermask,Bot*
G04 #@! TF.FilePolarity,Negative*
%FSLAX46Y46*%
G04 Gerber Fmt 4.6, Leading zero omitted, Abs format (unit mm)*
G04 Created by KiCad (PCBNEW (5.0.0)) date 04/19/19 16:08:10*
%MOMM*%
%LPD*%
G01*
G04 APERTURE LIST*
%ADD10C,0.100000*%
G04 APERTURE END LIST*
D10*
G36*
X137160429Y-88781137D02*
X137260523Y-88822598D01*
X137350604Y-88882788D01*
X137427213Y-88959397D01*
X137487403Y-89049478D01*
X137528864Y-89149572D01*
X137550000Y-89255831D01*
X137550000Y-89364171D01*
X137528864Y-89470430D01*
X137487403Y-89570524D01*
X137427213Y-89660605D01*
X137350604Y-89737214D01*
X137260523Y-89797404D01*
X137160429Y-89838865D01*
X137160427Y-89838865D01*
X137151380Y-89842613D01*
X137134091Y-89851854D01*
X137118938Y-89864291D01*
X137106502Y-89879445D01*
X137097261Y-89896733D01*
X137091570Y-89915493D01*
X137089649Y-89935002D01*
X137091571Y-89954511D01*
X137097261Y-89973270D01*
X137106502Y-89990559D01*
X137118939Y-90005712D01*
X137134093Y-90018148D01*
X137151380Y-90027389D01*
X137160427Y-90031137D01*
X137160429Y-90031137D01*
X137260523Y-90072598D01*
X137350604Y-90132788D01*
X137427213Y-90209397D01*
X137487403Y-90299478D01*
X137528864Y-90399572D01*
X137550000Y-90505831D01*
X137550000Y-90614171D01*
X137528864Y-90720430D01*
X137487403Y-90820524D01*
X137427213Y-90910605D01*
X137350604Y-90987214D01*
X137260523Y-91047404D01*
X137160429Y-91088865D01*
X137160427Y-91088865D01*
X137151380Y-91092613D01*
X137134091Y-91101854D01*
X137118938Y-91114291D01*
X137106502Y-91129445D01*
X137097261Y-91146733D01*
X137091570Y-91165493D01*
X137089649Y-91185002D01*
X137091571Y-91204511D01*
X137097261Y-91223270D01*
X137106502Y-91240559D01*
X137118939Y-91255712D01*
X137134093Y-91268148D01*
X137151380Y-91277389D01*
X137160427Y-91281137D01*
X137160429Y-91281137D01*
X137260523Y-91322598D01*
X137350604Y-91382788D01*
X137427213Y-91459397D01*
X137487403Y-91549478D01*
X137528864Y-91649572D01*
X137550000Y-91755831D01*
X137550000Y-91864171D01*
X137528864Y-91970430D01*
X137487403Y-92070524D01*
X137427213Y-92160605D01*
X137350604Y-92237214D01*
X137260523Y-92297404D01*
X137160429Y-92338865D01*
X137160427Y-92338865D01*
X137151380Y-92342613D01*
X137134091Y-92351854D01*
X137118938Y-92364291D01*
X137106502Y-92379445D01*
X137097261Y-92396733D01*
X137091570Y-92415493D01*
X137089649Y-92435002D01*
X137091571Y-92454511D01*
X137097261Y-92473270D01*
X137106502Y-92490559D01*
X137118939Y-92505712D01*
X137134093Y-92518148D01*
X137151380Y-92527389D01*
X137160427Y-92531137D01*
X137160429Y-92531137D01*
X137260523Y-92572598D01*
X137350604Y-92632788D01*
X137427213Y-92709397D01*
X137487403Y-92799478D01*
X137528864Y-92899572D01*
X137550000Y-93005831D01*
X137550000Y-93114171D01*
X137528864Y-93220430D01*
X137487403Y-93320524D01*
X137427213Y-93410605D01*
X137350604Y-93487214D01*
X137260523Y-93547404D01*
X137160429Y-93588865D01*
X137160427Y-93588865D01*
X137151380Y-93592613D01*
X137134091Y-93601854D01*
X137118938Y-93614291D01*
X137106502Y-93629445D01*
X137097261Y-93646733D01*
X137091570Y-93665493D01*
X137089649Y-93685002D01*
X137091571Y-93704511D01*
X137097261Y-93723270D01*
X137106502Y-93740559D01*
X137118939Y-93755712D01*
X137134093Y-93768148D01*
X137151380Y-93777389D01*
X137160427Y-93781137D01*
X137160429Y-93781137D01*
X137260523Y-93822598D01*
X137350604Y-93882788D01*
X137427213Y-93959397D01*
X137487403Y-94049478D01*
X137528864Y-94149572D01*
X137550000Y-94255831D01*
X137550000Y-94364171D01*
X137528864Y-94470430D01*
X137487403Y-94570524D01*
X137427213Y-94660605D01*
X137350604Y-94737214D01*
X137260523Y-94797404D01*
X137160429Y-94838865D01*
X137160427Y-94838865D01*
X137151380Y-94842613D01*
X137134091Y-94851854D01*
X137118938Y-94864291D01*
X137106502Y-94879445D01*
X137097261Y-94896733D01*
X137091570Y-94915493D01*
X137089649Y-94935002D01*
X137091571Y-94954511D01*
X137097261Y-94973270D01*
X137106502Y-94990559D01*
X137118939Y-95005712D01*
X137134093Y-95018148D01*
X137151380Y-95027389D01*
X137160427Y-95031137D01*
X137160429Y-95031137D01*
X137260523Y-95072598D01*
X137350604Y-95132788D01*
X137427213Y-95209397D01*
X137487403Y-95299478D01*
X137528864Y-95399572D01*
X137550000Y-95505831D01*
X137550000Y-95614171D01*
X137528864Y-95720430D01*
X137487403Y-95820524D01*
X137427213Y-95910605D01*
X137350604Y-95987214D01*
X137260523Y-96047404D01*
X137160429Y-96088865D01*
X137160427Y-96088865D01*
X137151380Y-96092613D01*
X137134091Y-96101854D01*
X137118938Y-96114291D01*
X137106502Y-96129445D01*
X137097261Y-96146733D01*
X137091570Y-96165493D01*
X137089649Y-96185002D01*
X137091571Y-96204511D01*
X137097261Y-96223270D01*
X137106502Y-96240559D01*
X137118939Y-96255712D01*
X137134093Y-96268148D01*
X137151380Y-96277389D01*
X137160427Y-96281137D01*
X137160429Y-96281137D01*
X137260523Y-96322598D01*
X137350604Y-96382788D01*
X137427213Y-96459397D01*
X137487403Y-96549478D01*
X137528864Y-96649572D01*
X137550000Y-96755831D01*
X137550000Y-96864171D01*
X137528864Y-96970430D01*
X137487403Y-97070524D01*
X137427213Y-97160605D01*
X137350604Y-97237214D01*
X137260523Y-97297404D01*
X137160429Y-97338865D01*
X137160427Y-97338865D01*
X137151380Y-97342613D01*
X137134091Y-97351854D01*
X137118938Y-97364291D01*
X137106502Y-97379445D01*
X137097261Y-97396733D01*
X137091570Y-97415493D01*
X137089649Y-97435002D01*
X137091571Y-97454511D01*
X137097261Y-97473270D01*
X137106502Y-97490559D01*
X137118939Y-97505712D01*
X137134093Y-97518148D01*
X137151380Y-97527389D01*
X137160427Y-97531137D01*
X137160429Y-97531137D01*
X137260523Y-97572598D01*
X137350604Y-97632788D01*
X137427213Y-97709397D01*
X137487403Y-97799478D01*
X137528864Y-97899572D01*
X137550000Y-98005831D01*
X137550000Y-98114171D01*
X137528864Y-98220430D01*
X137487403Y-98320524D01*
X137427213Y-98410605D01*
X137350604Y-98487214D01*
X137260523Y-98547404D01*
X137160429Y-98588865D01*
X137054170Y-98610001D01*
X136945830Y-98610001D01*
X136839571Y-98588865D01*
X136739477Y-98547404D01*
X136649396Y-98487214D01*
X136572787Y-98410605D01*
X136512597Y-98320524D01*
X136471136Y-98220430D01*
X136450000Y-98114171D01*
X136450000Y-98005831D01*
X136471136Y-97899572D01*
X136512597Y-97799478D01*
X136572787Y-97709397D01*
X136649396Y-97632788D01*
X136739477Y-97572598D01*
X136839571Y-97531137D01*
X136839573Y-97531137D01*
X136848620Y-97527389D01*
X136865909Y-97518148D01*
X136881062Y-97505711D01*
X136893498Y-97490557D01*
X136902739Y-97473269D01*
X136908430Y-97454509D01*
X136910351Y-97435000D01*
X136908429Y-97415491D01*
X136902739Y-97396732D01*
X136893498Y-97379443D01*
X136881061Y-97364290D01*
X136865907Y-97351854D01*
X136848620Y-97342613D01*
X136839573Y-97338865D01*
X136839571Y-97338865D01*
X136739477Y-97297404D01*
X136649396Y-97237214D01*
X136572787Y-97160605D01*
X136512597Y-97070524D01*
X136471136Y-96970430D01*
X136450000Y-96864171D01*
X136450000Y-96755831D01*
X136471136Y-96649572D01*
X136512597Y-96549478D01*
X136572787Y-96459397D01*
X136649396Y-96382788D01*
X136739477Y-96322598D01*
X136839571Y-96281137D01*
X136839573Y-96281137D01*
X136848620Y-96277389D01*
X136865909Y-96268148D01*
X136881062Y-96255711D01*
X136893498Y-96240557D01*
X136902739Y-96223269D01*
X136908430Y-96204509D01*
X136910351Y-96185000D01*
X136908429Y-96165491D01*
X136902739Y-96146732D01*
X136893498Y-96129443D01*
X136881061Y-96114290D01*
X136865907Y-96101854D01*
X136848620Y-96092613D01*
X136839573Y-96088865D01*
X136839571Y-96088865D01*
X136739477Y-96047404D01*
X136649396Y-95987214D01*
X136572787Y-95910605D01*
X136512597Y-95820524D01*
X136471136Y-95720430D01*
X136450000Y-95614171D01*
X136450000Y-95505831D01*
X136471136Y-95399572D01*
X136512597Y-95299478D01*
X136572787Y-95209397D01*
X136649396Y-95132788D01*
X136739477Y-95072598D01*
X136839571Y-95031137D01*
X136839573Y-95031137D01*
X136848620Y-95027389D01*
X136865909Y-95018148D01*
X136881062Y-95005711D01*
X136893498Y-94990557D01*
X136902739Y-94973269D01*
X136908430Y-94954509D01*
X136910351Y-94935000D01*
X136908429Y-94915491D01*
X136902739Y-94896732D01*
X136893498Y-94879443D01*
X136881061Y-94864290D01*
X136865907Y-94851854D01*
X136848620Y-94842613D01*
X136839573Y-94838865D01*
X136839571Y-94838865D01*
X136739477Y-94797404D01*
X136649396Y-94737214D01*
X136572787Y-94660605D01*
X136512597Y-94570524D01*
X136471136Y-94470430D01*
X136450000Y-94364171D01*
X136450000Y-94255831D01*
X136471136Y-94149572D01*
X136512597Y-94049478D01*
X136572787Y-93959397D01*
X136649396Y-93882788D01*
X136739477Y-93822598D01*
X136839571Y-93781137D01*
X136839573Y-93781137D01*
X136848620Y-93777389D01*
X136865909Y-93768148D01*
X136881062Y-93755711D01*
X136893498Y-93740557D01*
X136902739Y-93723269D01*
X136908430Y-93704509D01*
X136910351Y-93685000D01*
X136908429Y-93665491D01*
X136902739Y-93646732D01*
X136893498Y-93629443D01*
X136881061Y-93614290D01*
X136865907Y-93601854D01*
X136848620Y-93592613D01*
X136839573Y-93588865D01*
X136839571Y-93588865D01*
X136739477Y-93547404D01*
X136649396Y-93487214D01*
X136572787Y-93410605D01*
X136512597Y-93320524D01*
X136471136Y-93220430D01*
X136450000Y-93114171D01*
X136450000Y-93005831D01*
X136471136Y-92899572D01*
X136512597Y-92799478D01*
X136572787Y-92709397D01*
X136649396Y-92632788D01*
X136739477Y-92572598D01*
X136839571Y-92531137D01*
X136839573Y-92531137D01*
X136848620Y-92527389D01*
X136865909Y-92518148D01*
X136881062Y-92505711D01*
X136893498Y-92490557D01*
X136902739Y-92473269D01*
X136908430Y-92454509D01*
X136910351Y-92435000D01*
X136908429Y-92415491D01*
X136902739Y-92396732D01*
X136893498Y-92379443D01*
X136881061Y-92364290D01*
X136865907Y-92351854D01*
X136848620Y-92342613D01*
X136839573Y-92338865D01*
X136839571Y-92338865D01*
X136739477Y-92297404D01*
X136649396Y-92237214D01*
X136572787Y-92160605D01*
X136512597Y-92070524D01*
X136471136Y-91970430D01*
X136450000Y-91864171D01*
X136450000Y-91755831D01*
X136471136Y-91649572D01*
X136512597Y-91549478D01*
X136572787Y-91459397D01*
X136649396Y-91382788D01*
X136739477Y-91322598D01*
X136839571Y-91281137D01*
X136839573Y-91281137D01*
X136848620Y-91277389D01*
X136865909Y-91268148D01*
X136881062Y-91255711D01*
X136893498Y-91240557D01*
X136902739Y-91223269D01*
X136908430Y-91204509D01*
X136910351Y-91185000D01*
X136908429Y-91165491D01*
X136902739Y-91146732D01*
X136893498Y-91129443D01*
X136881061Y-91114290D01*
X136865907Y-91101854D01*
X136848620Y-91092613D01*
X136839573Y-91088865D01*
X136839571Y-91088865D01*
X136739477Y-91047404D01*
X136649396Y-90987214D01*
X136572787Y-90910605D01*
X136512597Y-90820524D01*
X136471136Y-90720430D01*
X136450000Y-90614171D01*
X136450000Y-90505831D01*
X136471136Y-90399572D01*
X136512597Y-90299478D01*
X136572787Y-90209397D01*
X136649396Y-90132788D01*
X136739477Y-90072598D01*
X136839571Y-90031137D01*
X136839573Y-90031137D01*
X136848620Y-90027389D01*
X136865909Y-90018148D01*
X136881062Y-90005711D01*
X136893498Y-89990557D01*
X136902739Y-89973269D01*
X136908430Y-89954509D01*
X136910351Y-89935000D01*
X136908429Y-89915491D01*
X136902739Y-89896732D01*
X136893498Y-89879443D01*
X136881061Y-89864290D01*
X136865907Y-89851854D01*
X136848620Y-89842613D01*
X136839573Y-89838865D01*
X136839571Y-89838865D01*
X136739477Y-89797404D01*
X136649396Y-89737214D01*
X136572787Y-89660605D01*
X136512597Y-89570524D01*
X136471136Y-89470430D01*
X136450000Y-89364171D01*
X136450000Y-89255831D01*
X136471136Y-89149572D01*
X136512597Y-89049478D01*
X136572787Y-88959397D01*
X136649396Y-88882788D01*
X136739477Y-88822598D01*
X136839571Y-88781137D01*
X136945830Y-88760001D01*
X137054170Y-88760001D01*
X137160429Y-88781137D01*
X137160429Y-88781137D01*
G37*
G36*
X149160429Y-88781137D02*
X149260523Y-88822598D01*
X149350604Y-88882788D01*
X149427213Y-88959397D01*
X149487403Y-89049478D01*
X149528864Y-89149572D01*
X149550000Y-89255831D01*
X149550000Y-89364171D01*
X149528864Y-89470430D01*
X149487403Y-89570524D01*
X149427213Y-89660605D01*
X149350604Y-89737214D01*
X149260523Y-89797404D01*
X149160429Y-89838865D01*
X149160427Y-89838865D01*
X149151380Y-89842613D01*
X149134091Y-89851854D01*
X149118938Y-89864291D01*
X149106502Y-89879445D01*
X149097261Y-89896733D01*
X149091570Y-89915493D01*
X149089649Y-89935002D01*
X149091571Y-89954511D01*
X149097261Y-89973270D01*
X149106502Y-89990559D01*
X149118939Y-90005712D01*
X149134093Y-90018148D01*
X149151380Y-90027389D01*
X149160427Y-90031137D01*
X149160429Y-90031137D01*
X149260523Y-90072598D01*
X149350604Y-90132788D01*
X149427213Y-90209397D01*
X149487403Y-90299478D01*
X149528864Y-90399572D01*
X149550000Y-90505831D01*
X149550000Y-90614171D01*
X149528864Y-90720430D01*
X149487403Y-90820524D01*
X149427213Y-90910605D01*
X149350604Y-90987214D01*
X149260523Y-91047404D01*
X149160429Y-91088865D01*
X149160427Y-91088865D01*
X149151380Y-91092613D01*
X149134091Y-91101854D01*
X149118938Y-91114291D01*
X149106502Y-91129445D01*
X149097261Y-91146733D01*
X149091570Y-91165493D01*
X149089649Y-91185002D01*
X149091571Y-91204511D01*
X149097261Y-91223270D01*
X149106502Y-91240559D01*
X149118939Y-91255712D01*
X149134093Y-91268148D01*
X149151380Y-91277389D01*
X149160427Y-91281137D01*
X149160429Y-91281137D01*
X149260523Y-91322598D01*
X149350604Y-91382788D01*
X149427213Y-91459397D01*
X149487403Y-91549478D01*
X149528864Y-91649572D01*
X149550000Y-91755831D01*
X149550000Y-91864171D01*
X149528864Y-91970430D01*
X149487403Y-92070524D01*
X149427213Y-92160605D01*
X149350604Y-92237214D01*
X149260523Y-92297404D01*
X149160429Y-92338865D01*
X149160427Y-92338865D01*
X149151380Y-92342613D01*
X149134091Y-92351854D01*
X149118938Y-92364291D01*
X149106502Y-92379445D01*
X149097261Y-92396733D01*
X149091570Y-92415493D01*
X149089649Y-92435002D01*
X149091571Y-92454511D01*
X149097261Y-92473270D01*
X149106502Y-92490559D01*
X149118939Y-92505712D01*
X149134093Y-92518148D01*
X149151380Y-92527389D01*
X149160427Y-92531137D01*
X149160429Y-92531137D01*
X149260523Y-92572598D01*
X149350604Y-92632788D01*
X149427213Y-92709397D01*
X149487403Y-92799478D01*
X149528864Y-92899572D01*
X149550000Y-93005831D01*
X149550000Y-93114171D01*
X149528864Y-93220430D01*
X149487403Y-93320524D01*
X149427213Y-93410605D01*
X149350604Y-93487214D01*
X149260523Y-93547404D01*
X149160429Y-93588865D01*
X149160427Y-93588865D01*
X149151380Y-93592613D01*
X149134091Y-93601854D01*
X149118938Y-93614291D01*
X149106502Y-93629445D01*
X149097261Y-93646733D01*
X149091570Y-93665493D01*
X149089649Y-93685002D01*
X149091571Y-93704511D01*
X149097261Y-93723270D01*
X149106502Y-93740559D01*
X149118939Y-93755712D01*
X149134093Y-93768148D01*
X149151380Y-93777389D01*
X149160427Y-93781137D01*
X149160429Y-93781137D01*
X149260523Y-93822598D01*
X149350604Y-93882788D01*
X149427213Y-93959397D01*
X149487403Y-94049478D01*
X149528864Y-94149572D01*
X149550000Y-94255831D01*
X149550000Y-94364171D01*
X149528864Y-94470430D01*
X149487403Y-94570524D01*
X149427213Y-94660605D01*
X149350604Y-94737214D01*
X149260523Y-94797404D01*
X149160429Y-94838865D01*
X149160427Y-94838865D01*
X149151380Y-94842613D01*
X149134091Y-94851854D01*
X149118938Y-94864291D01*
X149106502Y-94879445D01*
X149097261Y-94896733D01*
X149091570Y-94915493D01*
X149089649Y-94935002D01*
X149091571Y-94954511D01*
X149097261Y-94973270D01*
X149106502Y-94990559D01*
X149118939Y-95005712D01*
X149134093Y-95018148D01*
X149151380Y-95027389D01*
X149160427Y-95031137D01*
X149160429Y-95031137D01*
X149260523Y-95072598D01*
X149350604Y-95132788D01*
X149427213Y-95209397D01*
X149487403Y-95299478D01*
X149528864Y-95399572D01*
X149550000Y-95505831D01*
X149550000Y-95614171D01*
X149528864Y-95720430D01*
X149487403Y-95820524D01*
X149427213Y-95910605D01*
X149350604Y-95987214D01*
X149260523Y-96047404D01*
X149160429Y-96088865D01*
X149160427Y-96088865D01*
X149151380Y-96092613D01*
X149134091Y-96101854D01*
X149118938Y-96114291D01*
X149106502Y-96129445D01*
X149097261Y-96146733D01*
X149091570Y-96165493D01*
X149089649Y-96185002D01*
X149091571Y-96204511D01*
X149097261Y-96223270D01*
X149106502Y-96240559D01*
X149118939Y-96255712D01*
X149134093Y-96268148D01*
X149151380Y-96277389D01*
X149160427Y-96281137D01*
X149160429Y-96281137D01*
X149260523Y-96322598D01*
X149350604Y-96382788D01*
X149427213Y-96459397D01*
X149487403Y-96549478D01*
X149528864Y-96649572D01*
X149550000Y-96755831D01*
X149550000Y-96864171D01*
X149528864Y-96970430D01*
X149487403Y-97070524D01*
X149427213Y-97160605D01*
X149350604Y-97237214D01*
X149260523Y-97297404D01*
X149160429Y-97338865D01*
X149160427Y-97338865D01*
X149151380Y-97342613D01*
X149134091Y-97351854D01*
X149118938Y-97364291D01*
X149106502Y-97379445D01*
X149097261Y-97396733D01*
X149091570Y-97415493D01*
X149089649Y-97435002D01*
X149091571Y-97454511D01*
X149097261Y-97473270D01*
X149106502Y-97490559D01*
X149118939Y-97505712D01*
X149134093Y-97518148D01*
X149151380Y-97527389D01*
X149160427Y-97531137D01*
X149160429Y-97531137D01*
X149260523Y-97572598D01*
X149350604Y-97632788D01*
X149427213Y-97709397D01*
X149487403Y-97799478D01*
X149528864Y-97899572D01*
X149550000Y-98005831D01*
X149550000Y-98114171D01*
X149528864Y-98220430D01*
X149487403Y-98320524D01*
X149427213Y-98410605D01*
X149350604Y-98487214D01*
X149260523Y-98547404D01*
X149160429Y-98588865D01*
X149054170Y-98610001D01*
X148945830Y-98610001D01*
X148839571Y-98588865D01*
X148739477Y-98547404D01*
X148649396Y-98487214D01*
X148572787Y-98410605D01*
X148512597Y-98320524D01*
X148471136Y-98220430D01*
X148450000Y-98114171D01*
X148450000Y-98005831D01*
X148471136Y-97899572D01*
X148512597Y-97799478D01*
X148572787Y-97709397D01*
X148649396Y-97632788D01*
X148739477Y-97572598D01*
X148839571Y-97531137D01*
X148839573Y-97531137D01*
X148848620Y-97527389D01*
X148865909Y-97518148D01*
X148881062Y-97505711D01*
X148893498Y-97490557D01*
X148902739Y-97473269D01*
X148908430Y-97454509D01*
X148910351Y-97435000D01*
X148908429Y-97415491D01*
X148902739Y-97396732D01*
X148893498Y-97379443D01*
X148881061Y-97364290D01*
X148865907Y-97351854D01*
X148848620Y-97342613D01*
X148839573Y-97338865D01*
X148839571Y-97338865D01*
X148739477Y-97297404D01*
X148649396Y-97237214D01*
X148572787Y-97160605D01*
X148512597Y-97070524D01*
X148471136Y-96970430D01*
X148450000Y-96864171D01*
X148450000Y-96755831D01*
X148471136Y-96649572D01*
X148512597Y-96549478D01*
X148572787Y-96459397D01*
X148649396Y-96382788D01*
X148739477Y-96322598D01*
X148839571Y-96281137D01*
X148839573Y-96281137D01*
X148848620Y-96277389D01*
X148865909Y-96268148D01*
X148881062Y-96255711D01*
X148893498Y-96240557D01*
X148902739Y-96223269D01*
X148908430Y-96204509D01*
X148910351Y-96185000D01*
X148908429Y-96165491D01*
X148902739Y-96146732D01*
X148893498Y-96129443D01*
X148881061Y-96114290D01*
X148865907Y-96101854D01*
X148848620Y-96092613D01*
X148839573Y-96088865D01*
X148839571Y-96088865D01*
X148739477Y-96047404D01*
X148649396Y-95987214D01*
X148572787Y-95910605D01*
X148512597Y-95820524D01*
X148471136Y-95720430D01*
X148450000Y-95614171D01*
X148450000Y-95505831D01*
X148471136Y-95399572D01*
X148512597Y-95299478D01*
X148572787Y-95209397D01*
X148649396Y-95132788D01*
X148739477Y-95072598D01*
X148839571Y-95031137D01*
X148839573Y-95031137D01*
X148848620Y-95027389D01*
X148865909Y-95018148D01*
X148881062Y-95005711D01*
X148893498Y-94990557D01*
X148902739Y-94973269D01*
X148908430Y-94954509D01*
X148910351Y-94935000D01*
X148908429Y-94915491D01*
X148902739Y-94896732D01*
X148893498Y-94879443D01*
X148881061Y-94864290D01*
X148865907Y-94851854D01*
X148848620Y-94842613D01*
X148839573Y-94838865D01*
X148839571Y-94838865D01*
X148739477Y-94797404D01*
X148649396Y-94737214D01*
X148572787Y-94660605D01*
X148512597Y-94570524D01*
X148471136Y-94470430D01*
X148450000Y-94364171D01*
X148450000Y-94255831D01*
X148471136Y-94149572D01*
X148512597Y-94049478D01*
X148572787Y-93959397D01*
X148649396Y-93882788D01*
X148739477Y-93822598D01*
X148839571Y-93781137D01*
X148839573Y-93781137D01*
X148848620Y-93777389D01*
X148865909Y-93768148D01*
X148881062Y-93755711D01*
X148893498Y-93740557D01*
X148902739Y-93723269D01*
X148908430Y-93704509D01*
X148910351Y-93685000D01*
X148908429Y-93665491D01*
X148902739Y-93646732D01*
X148893498Y-93629443D01*
X148881061Y-93614290D01*
X148865907Y-93601854D01*
X148848620Y-93592613D01*
X148839573Y-93588865D01*
X148839571Y-93588865D01*
X148739477Y-93547404D01*
X148649396Y-93487214D01*
X148572787Y-93410605D01*
X148512597Y-93320524D01*
X148471136Y-93220430D01*
X148450000Y-93114171D01*
X148450000Y-93005831D01*
X148471136Y-92899572D01*
X148512597Y-92799478D01*
X148572787Y-92709397D01*
X148649396Y-92632788D01*
X148739477Y-92572598D01*
X148839571Y-92531137D01*
X148839573Y-92531137D01*
X148848620Y-92527389D01*
X148865909Y-92518148D01*
X148881062Y-92505711D01*
X148893498Y-92490557D01*
X148902739Y-92473269D01*
X148908430Y-92454509D01*
X148910351Y-92435000D01*
X148908429Y-92415491D01*
X148902739Y-92396732D01*
X148893498Y-92379443D01*
X148881061Y-92364290D01*
X148865907Y-92351854D01*
X148848620Y-92342613D01*
X148839573Y-92338865D01*
X148839571Y-92338865D01*
X148739477Y-92297404D01*
X148649396Y-92237214D01*
X148572787Y-92160605D01*
X148512597Y-92070524D01*
X148471136Y-91970430D01*
X148450000Y-91864171D01*
X148450000Y-91755831D01*
X148471136Y-91649572D01*
X148512597Y-91549478D01*
X148572787Y-91459397D01*
X148649396Y-91382788D01*
X148739477Y-91322598D01*
X148839571Y-91281137D01*
X148839573Y-91281137D01*
X148848620Y-91277389D01*
X148865909Y-91268148D01*
X148881062Y-91255711D01*
X148893498Y-91240557D01*
X148902739Y-91223269D01*
X148908430Y-91204509D01*
X148910351Y-91185000D01*
X148908429Y-91165491D01*
X148902739Y-91146732D01*
X148893498Y-91129443D01*
X148881061Y-91114290D01*
X148865907Y-91101854D01*
X148848620Y-91092613D01*
X148839573Y-91088865D01*
X148839571Y-91088865D01*
X148739477Y-91047404D01*
X148649396Y-90987214D01*
X148572787Y-90910605D01*
X148512597Y-90820524D01*
X148471136Y-90720430D01*
X148450000Y-90614171D01*
X148450000Y-90505831D01*
X148471136Y-90399572D01*
X148512597Y-90299478D01*
X148572787Y-90209397D01*
X148649396Y-90132788D01*
X148739477Y-90072598D01*
X148839571Y-90031137D01*
X148839573Y-90031137D01*
X148848620Y-90027389D01*
X148865909Y-90018148D01*
X148881062Y-90005711D01*
X148893498Y-89990557D01*
X148902739Y-89973269D01*
X148908430Y-89954509D01*
X148910351Y-89935000D01*
X148908429Y-89915491D01*
X148902739Y-89896732D01*
X148893498Y-89879443D01*
X148881061Y-89864290D01*
X148865907Y-89851854D01*
X148848620Y-89842613D01*
X148839573Y-89838865D01*
X148839571Y-89838865D01*
X148739477Y-89797404D01*
X148649396Y-89737214D01*
X148572787Y-89660605D01*
X148512597Y-89570524D01*
X148471136Y-89470430D01*
X148450000Y-89364171D01*
X148450000Y-89255831D01*
X148471136Y-89149572D01*
X148512597Y-89049478D01*
X148572787Y-88959397D01*
X148649396Y-88882788D01*
X148739477Y-88822598D01*
X148839571Y-88781137D01*
X148945830Y-88760001D01*
X149054170Y-88760001D01*
X149160429Y-88781137D01*
X149160429Y-88781137D01*
G37*
M02*
