G04 #@! TF.GenerationSoftware,KiCad,Pcbnew,(5.0.0)*
G04 #@! TF.CreationDate,2019-04-19T16:08:10+03:00*
G04 #@! TF.ProjectId,564__1__DG409L,3536341A1F31125F44473430394C2E6B,rev?*
G04 #@! TF.SameCoordinates,Original*
G04 #@! TF.FileFunction,Copper,L2,Bot,Signal*
G04 #@! TF.FilePolarity,Positive*
%FSLAX46Y46*%
G04 Gerber Fmt 4.6, Leading zero omitted, Abs format (unit mm)*
G04 Created by KiCad (PCBNEW (5.0.0)) date 04/19/19 16:08:10*
%MOMM*%
%LPD*%
G01*
G04 APERTURE LIST*
G04 #@! TA.AperFunction,NonConductor*
%ADD10C,0.300000*%
G04 #@! TD*
G04 #@! TA.AperFunction,ComponentPad*
%ADD11C,1.000000*%
G04 #@! TD*
G04 #@! TA.AperFunction,ViaPad*
%ADD12C,0.800000*%
G04 #@! TD*
G04 #@! TA.AperFunction,Conductor*
%ADD13C,0.200000*%
G04 #@! TD*
G04 APERTURE END LIST*
D10*
X140178571Y-88392857D02*
X139178571Y-88392857D01*
X139321428Y-88392857D02*
X139250000Y-88464285D01*
X139178571Y-88607142D01*
X139178571Y-88821428D01*
X139250000Y-88964285D01*
X139392857Y-89035714D01*
X140178571Y-89035714D01*
X139392857Y-89035714D02*
X139250000Y-89107142D01*
X139178571Y-89250000D01*
X139178571Y-89464285D01*
X139250000Y-89607142D01*
X139392857Y-89678571D01*
X140178571Y-89678571D01*
X140178571Y-91035714D02*
X139392857Y-91035714D01*
X139250000Y-90964285D01*
X139178571Y-90821428D01*
X139178571Y-90535714D01*
X139250000Y-90392857D01*
X140107142Y-91035714D02*
X140178571Y-90892857D01*
X140178571Y-90535714D01*
X140107142Y-90392857D01*
X139964285Y-90321428D01*
X139821428Y-90321428D01*
X139678571Y-90392857D01*
X139607142Y-90535714D01*
X139607142Y-90892857D01*
X139535714Y-91035714D01*
X139178571Y-91535714D02*
X139178571Y-92107142D01*
X140178571Y-91750000D02*
X138892857Y-91750000D01*
X138750000Y-91821428D01*
X138678571Y-91964285D01*
X138678571Y-92107142D01*
X140035714Y-92607142D02*
X140107142Y-92678571D01*
X140178571Y-92607142D01*
X140107142Y-92535714D01*
X140035714Y-92607142D01*
X140178571Y-92607142D01*
X140178571Y-94107142D02*
X140178571Y-93250000D01*
X140178571Y-93678571D02*
X138678571Y-93678571D01*
X138892857Y-93535714D01*
X139035714Y-93392857D01*
X139107142Y-93250000D01*
X140321428Y-94392857D02*
X140321428Y-95535714D01*
X140178571Y-96678571D02*
X140178571Y-95821428D01*
X140178571Y-96250000D02*
X138678571Y-96250000D01*
X138892857Y-96107142D01*
X139035714Y-95964285D01*
X139107142Y-95821428D01*
X141178571Y-89178571D02*
X141178571Y-88464285D01*
X141892857Y-88392857D01*
X141821428Y-88464285D01*
X141750000Y-88607142D01*
X141750000Y-88964285D01*
X141821428Y-89107142D01*
X141892857Y-89178571D01*
X142035714Y-89250000D01*
X142392857Y-89250000D01*
X142535714Y-89178571D01*
X142607142Y-89107142D01*
X142678571Y-88964285D01*
X142678571Y-88607142D01*
X142607142Y-88464285D01*
X142535714Y-88392857D01*
X141178571Y-90535714D02*
X141178571Y-90250000D01*
X141250000Y-90107142D01*
X141321428Y-90035714D01*
X141535714Y-89892857D01*
X141821428Y-89821428D01*
X142392857Y-89821428D01*
X142535714Y-89892857D01*
X142607142Y-89964285D01*
X142678571Y-90107142D01*
X142678571Y-90392857D01*
X142607142Y-90535714D01*
X142535714Y-90607142D01*
X142392857Y-90678571D01*
X142035714Y-90678571D01*
X141892857Y-90607142D01*
X141821428Y-90535714D01*
X141750000Y-90392857D01*
X141750000Y-90107142D01*
X141821428Y-89964285D01*
X141892857Y-89892857D01*
X142035714Y-89821428D01*
X141678571Y-91964285D02*
X142678571Y-91964285D01*
X141107142Y-91607142D02*
X142178571Y-91250000D01*
X142178571Y-92178571D01*
X142678571Y-92750000D02*
X141178571Y-92750000D01*
X142678571Y-93607142D02*
X141821428Y-92964285D01*
X141178571Y-93607142D02*
X142035714Y-92750000D01*
X142678571Y-94250000D02*
X141178571Y-94250000D01*
X141178571Y-95107142D01*
X142678571Y-95107142D01*
X142678571Y-96607142D02*
X142678571Y-95750000D01*
X142678571Y-96178571D02*
X141178571Y-96178571D01*
X141392857Y-96035714D01*
X141535714Y-95892857D01*
X141607142Y-95750000D01*
D11*
G04 #@! TO.P,DD1,1*
G04 #@! TO.N,Y0*
X137000000Y-89310001D03*
G04 #@! TO.P,DD1,16*
G04 #@! TO.N,Vcc*
X149000000Y-89310001D03*
G04 #@! TO.P,DD1,2*
G04 #@! TO.N,Y2*
X137000000Y-90560001D03*
G04 #@! TO.P,DD1,15*
G04 #@! TO.N,X2*
X149000000Y-90560001D03*
G04 #@! TO.P,DD1,3*
G04 #@! TO.N,Y*
X137000000Y-91810001D03*
G04 #@! TO.P,DD1,14*
G04 #@! TO.N,X1*
X149000000Y-91810001D03*
G04 #@! TO.P,DD1,4*
G04 #@! TO.N,Y3*
X137000000Y-93060001D03*
G04 #@! TO.P,DD1,13*
G04 #@! TO.N,X*
X149000000Y-93060001D03*
G04 #@! TO.P,DD1,5*
G04 #@! TO.N,Y1*
X137000000Y-94310001D03*
G04 #@! TO.P,DD1,12*
G04 #@! TO.N,X0*
X149000000Y-94310001D03*
G04 #@! TO.P,DD1,6*
G04 #@! TO.N,C*
X137000000Y-95560001D03*
G04 #@! TO.P,DD1,11*
G04 #@! TO.N,X3*
X149000000Y-95560001D03*
G04 #@! TO.P,DD1,7*
G04 #@! TO.N,Net-(DD1-Pad7)*
X137000000Y-96810001D03*
G04 #@! TO.P,DD1,10*
G04 #@! TO.N,A*
X149000000Y-96810001D03*
G04 #@! TO.P,DD1,8*
G04 #@! TO.N,GND*
X137000000Y-98060001D03*
G04 #@! TO.P,DD1,9*
G04 #@! TO.N,B*
X149000000Y-98060001D03*
G04 #@! TD*
D12*
G04 #@! TO.N,X2*
X143500000Y-90210001D03*
G04 #@! TO.N,X*
X146500000Y-90210001D03*
G04 #@! TO.N,C*
X139500000Y-97250000D03*
X146500000Y-99000000D03*
G04 #@! TO.N,X3*
X145000000Y-90210001D03*
G04 #@! TO.N,B*
X141000000Y-97250000D03*
G04 #@! TD*
D13*
G04 #@! TO.N,X2*
X143500000Y-89500000D02*
X143500000Y-90210001D01*
X148182002Y-90560001D02*
X148000000Y-90377999D01*
X148000000Y-90377999D02*
X148000000Y-89500000D01*
X148000000Y-89500000D02*
X147810000Y-89310000D01*
X149000000Y-90560001D02*
X148182002Y-90560001D01*
X147810000Y-89310000D02*
X143690000Y-89310000D01*
X143690000Y-89310000D02*
X143500000Y-89500000D01*
G04 #@! TO.N,X*
X147060001Y-93060001D02*
X149000000Y-93060001D01*
X146500000Y-90210001D02*
X146500000Y-92500000D01*
X146500000Y-92500000D02*
X147060001Y-93060001D01*
G04 #@! TO.N,C*
X140151472Y-99000000D02*
X141000000Y-99000000D01*
X139500000Y-98348528D02*
X140151472Y-99000000D01*
X139500000Y-97500000D02*
X139500000Y-98348528D01*
X141000000Y-99000000D02*
X146500000Y-99000000D01*
G04 #@! TO.N,X3*
X145560001Y-95560001D02*
X149000000Y-95560001D01*
X145000000Y-90210001D02*
X145000000Y-95000000D01*
X145000000Y-95000000D02*
X145560001Y-95560001D01*
G04 #@! TO.N,B*
X141750000Y-98000000D02*
X148599990Y-98000000D01*
X141000000Y-97250000D02*
X141750000Y-98000000D01*
G04 #@! TD*
M02*
