G04 #@! TF.GenerationSoftware,KiCad,Pcbnew,(5.0.0)*
G04 #@! TF.CreationDate,2019-03-20T16:36:05+03:00*
G04 #@! TF.ProjectId,Rs485_adapter,52733438355F616461707465722E6B69,rev?*
G04 #@! TF.SameCoordinates,Original*
G04 #@! TF.FileFunction,Soldermask,Top*
G04 #@! TF.FilePolarity,Negative*
%FSLAX46Y46*%
G04 Gerber Fmt 4.6, Leading zero omitted, Abs format (unit mm)*
G04 Created by KiCad (PCBNEW (5.0.0)) date 03/20/19 16:36:05*
%MOMM*%
%LPD*%
G01*
G04 APERTURE LIST*
%ADD10C,0.200000*%
G04 APERTURE END LIST*
D10*
G36*
X140550000Y-96300000D02*
X139450000Y-96300000D01*
X139450000Y-94700000D01*
X140550000Y-94700000D01*
X140550000Y-96300000D01*
X140550000Y-96300000D01*
G37*
G36*
X138550000Y-96300000D02*
X137450000Y-96300000D01*
X137450000Y-94700000D01*
X138550000Y-94700000D01*
X138550000Y-96300000D01*
X138550000Y-96300000D01*
G37*
G36*
X163550000Y-96300000D02*
X162450000Y-96300000D01*
X162450000Y-94700000D01*
X163550000Y-94700000D01*
X163550000Y-96300000D01*
X163550000Y-96300000D01*
G37*
G36*
X161550000Y-96300000D02*
X160450000Y-96300000D01*
X160450000Y-94700000D01*
X161550000Y-94700000D01*
X161550000Y-96300000D01*
X161550000Y-96300000D01*
G37*
G36*
X165602280Y-86061529D02*
X165631261Y-86067294D01*
X165648222Y-86074319D01*
X165713155Y-86101215D01*
X165786858Y-86150462D01*
X165849538Y-86213142D01*
X165898785Y-86286845D01*
X165932706Y-86368740D01*
X165950000Y-86455679D01*
X165950000Y-86544321D01*
X165932706Y-86631260D01*
X165898785Y-86713155D01*
X165849538Y-86786858D01*
X165786858Y-86849538D01*
X165713155Y-86898785D01*
X165691839Y-86907614D01*
X165674554Y-86916854D01*
X165659401Y-86929290D01*
X165646964Y-86944444D01*
X165637724Y-86961733D01*
X165632033Y-86980492D01*
X165630112Y-87000001D01*
X165632034Y-87019510D01*
X165637724Y-87038269D01*
X165646966Y-87055558D01*
X165659402Y-87070711D01*
X165674556Y-87083148D01*
X165691839Y-87092386D01*
X165713155Y-87101215D01*
X165786858Y-87150462D01*
X165849538Y-87213142D01*
X165898785Y-87286845D01*
X165932706Y-87368740D01*
X165950000Y-87455679D01*
X165950000Y-87544321D01*
X165932706Y-87631260D01*
X165898785Y-87713155D01*
X165849538Y-87786858D01*
X165786858Y-87849538D01*
X165713155Y-87898785D01*
X165691839Y-87907614D01*
X165674554Y-87916854D01*
X165659401Y-87929290D01*
X165646964Y-87944444D01*
X165637724Y-87961733D01*
X165632033Y-87980492D01*
X165630112Y-88000001D01*
X165632034Y-88019510D01*
X165637724Y-88038269D01*
X165646966Y-88055558D01*
X165659402Y-88070711D01*
X165674556Y-88083148D01*
X165691839Y-88092386D01*
X165713155Y-88101215D01*
X165786858Y-88150462D01*
X165849538Y-88213142D01*
X165898785Y-88286845D01*
X165932706Y-88368740D01*
X165950000Y-88455679D01*
X165950000Y-88544321D01*
X165932706Y-88631260D01*
X165898785Y-88713155D01*
X165849538Y-88786858D01*
X165786858Y-88849538D01*
X165713155Y-88898785D01*
X165691839Y-88907614D01*
X165674554Y-88916854D01*
X165659401Y-88929290D01*
X165646964Y-88944444D01*
X165637724Y-88961733D01*
X165632033Y-88980492D01*
X165630112Y-89000001D01*
X165632034Y-89019510D01*
X165637724Y-89038269D01*
X165646966Y-89055558D01*
X165659402Y-89070711D01*
X165674556Y-89083148D01*
X165691839Y-89092386D01*
X165713155Y-89101215D01*
X165786858Y-89150462D01*
X165849538Y-89213142D01*
X165898785Y-89286845D01*
X165932706Y-89368740D01*
X165950000Y-89455679D01*
X165950000Y-89544321D01*
X165932706Y-89631260D01*
X165898785Y-89713155D01*
X165849538Y-89786858D01*
X165786858Y-89849538D01*
X165713155Y-89898785D01*
X165691839Y-89907614D01*
X165674554Y-89916854D01*
X165659401Y-89929290D01*
X165646964Y-89944444D01*
X165637724Y-89961733D01*
X165632033Y-89980492D01*
X165630112Y-90000001D01*
X165632034Y-90019510D01*
X165637724Y-90038269D01*
X165646966Y-90055558D01*
X165659402Y-90070711D01*
X165674556Y-90083148D01*
X165691839Y-90092386D01*
X165713155Y-90101215D01*
X165786858Y-90150462D01*
X165849538Y-90213142D01*
X165898785Y-90286845D01*
X165932706Y-90368740D01*
X165950000Y-90455679D01*
X165950000Y-90544321D01*
X165932706Y-90631260D01*
X165898785Y-90713155D01*
X165849538Y-90786858D01*
X165786858Y-90849538D01*
X165713155Y-90898785D01*
X165691839Y-90907614D01*
X165674554Y-90916854D01*
X165659401Y-90929290D01*
X165646964Y-90944444D01*
X165637724Y-90961733D01*
X165632033Y-90980492D01*
X165630112Y-91000001D01*
X165632034Y-91019510D01*
X165637724Y-91038269D01*
X165646966Y-91055558D01*
X165659402Y-91070711D01*
X165674556Y-91083148D01*
X165691839Y-91092386D01*
X165713155Y-91101215D01*
X165786858Y-91150462D01*
X165849538Y-91213142D01*
X165898785Y-91286845D01*
X165932706Y-91368740D01*
X165950000Y-91455679D01*
X165950000Y-91544321D01*
X165932706Y-91631260D01*
X165898785Y-91713155D01*
X165849538Y-91786858D01*
X165786858Y-91849538D01*
X165713155Y-91898785D01*
X165691839Y-91907614D01*
X165674554Y-91916854D01*
X165659401Y-91929290D01*
X165646964Y-91944444D01*
X165637724Y-91961733D01*
X165632033Y-91980492D01*
X165630112Y-92000001D01*
X165632034Y-92019510D01*
X165637724Y-92038269D01*
X165646966Y-92055558D01*
X165659402Y-92070711D01*
X165674556Y-92083148D01*
X165691839Y-92092386D01*
X165713155Y-92101215D01*
X165786858Y-92150462D01*
X165849538Y-92213142D01*
X165898785Y-92286845D01*
X165932706Y-92368740D01*
X165950000Y-92455679D01*
X165950000Y-92544321D01*
X165932706Y-92631260D01*
X165898785Y-92713155D01*
X165849538Y-92786858D01*
X165786858Y-92849538D01*
X165713155Y-92898785D01*
X165691839Y-92907614D01*
X165674554Y-92916854D01*
X165659401Y-92929290D01*
X165646964Y-92944444D01*
X165637724Y-92961733D01*
X165632033Y-92980492D01*
X165630112Y-93000001D01*
X165632034Y-93019510D01*
X165637724Y-93038269D01*
X165646966Y-93055558D01*
X165659402Y-93070711D01*
X165674556Y-93083148D01*
X165691839Y-93092386D01*
X165713155Y-93101215D01*
X165786858Y-93150462D01*
X165849538Y-93213142D01*
X165898785Y-93286845D01*
X165932706Y-93368740D01*
X165950000Y-93455679D01*
X165950000Y-93544321D01*
X165932706Y-93631260D01*
X165898785Y-93713155D01*
X165849538Y-93786858D01*
X165786858Y-93849538D01*
X165713155Y-93898785D01*
X165691839Y-93907614D01*
X165674554Y-93916854D01*
X165659401Y-93929290D01*
X165646964Y-93944444D01*
X165637724Y-93961733D01*
X165632033Y-93980492D01*
X165630112Y-94000001D01*
X165632034Y-94019510D01*
X165637724Y-94038269D01*
X165646966Y-94055558D01*
X165659402Y-94070711D01*
X165674556Y-94083148D01*
X165691839Y-94092386D01*
X165713155Y-94101215D01*
X165786858Y-94150462D01*
X165849538Y-94213142D01*
X165898785Y-94286845D01*
X165932706Y-94368740D01*
X165950000Y-94455679D01*
X165950000Y-94544321D01*
X165932706Y-94631260D01*
X165898785Y-94713155D01*
X165849538Y-94786858D01*
X165786858Y-94849538D01*
X165713155Y-94898785D01*
X165691839Y-94907614D01*
X165674554Y-94916854D01*
X165659401Y-94929290D01*
X165646964Y-94944444D01*
X165637724Y-94961733D01*
X165632033Y-94980492D01*
X165630112Y-95000001D01*
X165632034Y-95019510D01*
X165637724Y-95038269D01*
X165646966Y-95055558D01*
X165659402Y-95070711D01*
X165674556Y-95083148D01*
X165691839Y-95092386D01*
X165713155Y-95101215D01*
X165786858Y-95150462D01*
X165849538Y-95213142D01*
X165898785Y-95286845D01*
X165932706Y-95368740D01*
X165950000Y-95455679D01*
X165950000Y-95544321D01*
X165932706Y-95631260D01*
X165898785Y-95713155D01*
X165849538Y-95786858D01*
X165786858Y-95849538D01*
X165713155Y-95898785D01*
X165648221Y-95925681D01*
X165631261Y-95932706D01*
X165602280Y-95938471D01*
X165544321Y-95950000D01*
X165455679Y-95950000D01*
X165397720Y-95938471D01*
X165368739Y-95932706D01*
X165351778Y-95925681D01*
X165286845Y-95898785D01*
X165213142Y-95849538D01*
X165150462Y-95786858D01*
X165101215Y-95713155D01*
X165067294Y-95631260D01*
X165050000Y-95544321D01*
X165050000Y-95455679D01*
X165067294Y-95368740D01*
X165101215Y-95286845D01*
X165150462Y-95213142D01*
X165213142Y-95150462D01*
X165286845Y-95101215D01*
X165308161Y-95092386D01*
X165325446Y-95083146D01*
X165340599Y-95070710D01*
X165353036Y-95055556D01*
X165362276Y-95038267D01*
X165367967Y-95019508D01*
X165369888Y-94999999D01*
X165367966Y-94980490D01*
X165362276Y-94961731D01*
X165353034Y-94944442D01*
X165340598Y-94929289D01*
X165325444Y-94916852D01*
X165308161Y-94907614D01*
X165286845Y-94898785D01*
X165213142Y-94849538D01*
X165150462Y-94786858D01*
X165101215Y-94713155D01*
X165067294Y-94631260D01*
X165050000Y-94544321D01*
X165050000Y-94455679D01*
X165067294Y-94368740D01*
X165101215Y-94286845D01*
X165150462Y-94213142D01*
X165213142Y-94150462D01*
X165286845Y-94101215D01*
X165308161Y-94092386D01*
X165325446Y-94083146D01*
X165340599Y-94070710D01*
X165353036Y-94055556D01*
X165362276Y-94038267D01*
X165367967Y-94019508D01*
X165369888Y-93999999D01*
X165367966Y-93980490D01*
X165362276Y-93961731D01*
X165353034Y-93944442D01*
X165340598Y-93929289D01*
X165325444Y-93916852D01*
X165308161Y-93907614D01*
X165286845Y-93898785D01*
X165213142Y-93849538D01*
X165150462Y-93786858D01*
X165101215Y-93713155D01*
X165067294Y-93631260D01*
X165050000Y-93544321D01*
X165050000Y-93455679D01*
X165067294Y-93368740D01*
X165101215Y-93286845D01*
X165150462Y-93213142D01*
X165213142Y-93150462D01*
X165286845Y-93101215D01*
X165308161Y-93092386D01*
X165325446Y-93083146D01*
X165340599Y-93070710D01*
X165353036Y-93055556D01*
X165362276Y-93038267D01*
X165367967Y-93019508D01*
X165369888Y-92999999D01*
X165367966Y-92980490D01*
X165362276Y-92961731D01*
X165353034Y-92944442D01*
X165340598Y-92929289D01*
X165325444Y-92916852D01*
X165308161Y-92907614D01*
X165286845Y-92898785D01*
X165213142Y-92849538D01*
X165150462Y-92786858D01*
X165101215Y-92713155D01*
X165067294Y-92631260D01*
X165050000Y-92544321D01*
X165050000Y-92455679D01*
X165067294Y-92368740D01*
X165101215Y-92286845D01*
X165150462Y-92213142D01*
X165213142Y-92150462D01*
X165286845Y-92101215D01*
X165308161Y-92092386D01*
X165325446Y-92083146D01*
X165340599Y-92070710D01*
X165353036Y-92055556D01*
X165362276Y-92038267D01*
X165367967Y-92019508D01*
X165369888Y-91999999D01*
X165367966Y-91980490D01*
X165362276Y-91961731D01*
X165353034Y-91944442D01*
X165340598Y-91929289D01*
X165325444Y-91916852D01*
X165308161Y-91907614D01*
X165286845Y-91898785D01*
X165213142Y-91849538D01*
X165150462Y-91786858D01*
X165101215Y-91713155D01*
X165067294Y-91631260D01*
X165050000Y-91544321D01*
X165050000Y-91455679D01*
X165067294Y-91368740D01*
X165101215Y-91286845D01*
X165150462Y-91213142D01*
X165213142Y-91150462D01*
X165286845Y-91101215D01*
X165308161Y-91092386D01*
X165325446Y-91083146D01*
X165340599Y-91070710D01*
X165353036Y-91055556D01*
X165362276Y-91038267D01*
X165367967Y-91019508D01*
X165369888Y-90999999D01*
X165367966Y-90980490D01*
X165362276Y-90961731D01*
X165353034Y-90944442D01*
X165340598Y-90929289D01*
X165325444Y-90916852D01*
X165308161Y-90907614D01*
X165286845Y-90898785D01*
X165213142Y-90849538D01*
X165150462Y-90786858D01*
X165101215Y-90713155D01*
X165067294Y-90631260D01*
X165050000Y-90544321D01*
X165050000Y-90455679D01*
X165067294Y-90368740D01*
X165101215Y-90286845D01*
X165150462Y-90213142D01*
X165213142Y-90150462D01*
X165286845Y-90101215D01*
X165308161Y-90092386D01*
X165325446Y-90083146D01*
X165340599Y-90070710D01*
X165353036Y-90055556D01*
X165362276Y-90038267D01*
X165367967Y-90019508D01*
X165369888Y-89999999D01*
X165367966Y-89980490D01*
X165362276Y-89961731D01*
X165353034Y-89944442D01*
X165340598Y-89929289D01*
X165325444Y-89916852D01*
X165308161Y-89907614D01*
X165286845Y-89898785D01*
X165213142Y-89849538D01*
X165150462Y-89786858D01*
X165101215Y-89713155D01*
X165067294Y-89631260D01*
X165050000Y-89544321D01*
X165050000Y-89455679D01*
X165067294Y-89368740D01*
X165101215Y-89286845D01*
X165150462Y-89213142D01*
X165213142Y-89150462D01*
X165286845Y-89101215D01*
X165308161Y-89092386D01*
X165325446Y-89083146D01*
X165340599Y-89070710D01*
X165353036Y-89055556D01*
X165362276Y-89038267D01*
X165367967Y-89019508D01*
X165369888Y-88999999D01*
X165367966Y-88980490D01*
X165362276Y-88961731D01*
X165353034Y-88944442D01*
X165340598Y-88929289D01*
X165325444Y-88916852D01*
X165308161Y-88907614D01*
X165286845Y-88898785D01*
X165213142Y-88849538D01*
X165150462Y-88786858D01*
X165101215Y-88713155D01*
X165067294Y-88631260D01*
X165050000Y-88544321D01*
X165050000Y-88455679D01*
X165067294Y-88368740D01*
X165101215Y-88286845D01*
X165150462Y-88213142D01*
X165213142Y-88150462D01*
X165286845Y-88101215D01*
X165308161Y-88092386D01*
X165325446Y-88083146D01*
X165340599Y-88070710D01*
X165353036Y-88055556D01*
X165362276Y-88038267D01*
X165367967Y-88019508D01*
X165369888Y-87999999D01*
X165367966Y-87980490D01*
X165362276Y-87961731D01*
X165353034Y-87944442D01*
X165340598Y-87929289D01*
X165325444Y-87916852D01*
X165308161Y-87907614D01*
X165286845Y-87898785D01*
X165213142Y-87849538D01*
X165150462Y-87786858D01*
X165101215Y-87713155D01*
X165067294Y-87631260D01*
X165050000Y-87544321D01*
X165050000Y-87455679D01*
X165067294Y-87368740D01*
X165101215Y-87286845D01*
X165150462Y-87213142D01*
X165213142Y-87150462D01*
X165286845Y-87101215D01*
X165308161Y-87092386D01*
X165325446Y-87083146D01*
X165340599Y-87070710D01*
X165353036Y-87055556D01*
X165362276Y-87038267D01*
X165367967Y-87019508D01*
X165369888Y-86999999D01*
X165367966Y-86980490D01*
X165362276Y-86961731D01*
X165353034Y-86944442D01*
X165340598Y-86929289D01*
X165325444Y-86916852D01*
X165308161Y-86907614D01*
X165286845Y-86898785D01*
X165213142Y-86849538D01*
X165150462Y-86786858D01*
X165101215Y-86713155D01*
X165067294Y-86631260D01*
X165050000Y-86544321D01*
X165050000Y-86455679D01*
X165067294Y-86368740D01*
X165101215Y-86286845D01*
X165150462Y-86213142D01*
X165213142Y-86150462D01*
X165286845Y-86101215D01*
X165351778Y-86074319D01*
X165368739Y-86067294D01*
X165397720Y-86061529D01*
X165455679Y-86050000D01*
X165544321Y-86050000D01*
X165602280Y-86061529D01*
X165602280Y-86061529D01*
G37*
G36*
X134602280Y-86061529D02*
X134631261Y-86067294D01*
X134648222Y-86074319D01*
X134713155Y-86101215D01*
X134786858Y-86150462D01*
X134849538Y-86213142D01*
X134898785Y-86286845D01*
X134932706Y-86368740D01*
X134950000Y-86455679D01*
X134950000Y-86544321D01*
X134932706Y-86631260D01*
X134898785Y-86713155D01*
X134849538Y-86786858D01*
X134786858Y-86849538D01*
X134713155Y-86898785D01*
X134691839Y-86907614D01*
X134674554Y-86916854D01*
X134659401Y-86929290D01*
X134646964Y-86944444D01*
X134637724Y-86961733D01*
X134632033Y-86980492D01*
X134630112Y-87000001D01*
X134632034Y-87019510D01*
X134637724Y-87038269D01*
X134646966Y-87055558D01*
X134659402Y-87070711D01*
X134674556Y-87083148D01*
X134691839Y-87092386D01*
X134713155Y-87101215D01*
X134786858Y-87150462D01*
X134849538Y-87213142D01*
X134898785Y-87286845D01*
X134932706Y-87368740D01*
X134950000Y-87455679D01*
X134950000Y-87544321D01*
X134932706Y-87631260D01*
X134898785Y-87713155D01*
X134849538Y-87786858D01*
X134786858Y-87849538D01*
X134713155Y-87898785D01*
X134691839Y-87907614D01*
X134674554Y-87916854D01*
X134659401Y-87929290D01*
X134646964Y-87944444D01*
X134637724Y-87961733D01*
X134632033Y-87980492D01*
X134630112Y-88000001D01*
X134632034Y-88019510D01*
X134637724Y-88038269D01*
X134646966Y-88055558D01*
X134659402Y-88070711D01*
X134674556Y-88083148D01*
X134691839Y-88092386D01*
X134713155Y-88101215D01*
X134786858Y-88150462D01*
X134849538Y-88213142D01*
X134898785Y-88286845D01*
X134932706Y-88368740D01*
X134950000Y-88455679D01*
X134950000Y-88544321D01*
X134932706Y-88631260D01*
X134898785Y-88713155D01*
X134849538Y-88786858D01*
X134786858Y-88849538D01*
X134713155Y-88898785D01*
X134691839Y-88907614D01*
X134674554Y-88916854D01*
X134659401Y-88929290D01*
X134646964Y-88944444D01*
X134637724Y-88961733D01*
X134632033Y-88980492D01*
X134630112Y-89000001D01*
X134632034Y-89019510D01*
X134637724Y-89038269D01*
X134646966Y-89055558D01*
X134659402Y-89070711D01*
X134674556Y-89083148D01*
X134691839Y-89092386D01*
X134713155Y-89101215D01*
X134786858Y-89150462D01*
X134849538Y-89213142D01*
X134898785Y-89286845D01*
X134932706Y-89368740D01*
X134950000Y-89455679D01*
X134950000Y-89544321D01*
X134932706Y-89631260D01*
X134898785Y-89713155D01*
X134849538Y-89786858D01*
X134786858Y-89849538D01*
X134713155Y-89898785D01*
X134691839Y-89907614D01*
X134674554Y-89916854D01*
X134659401Y-89929290D01*
X134646964Y-89944444D01*
X134637724Y-89961733D01*
X134632033Y-89980492D01*
X134630112Y-90000001D01*
X134632034Y-90019510D01*
X134637724Y-90038269D01*
X134646966Y-90055558D01*
X134659402Y-90070711D01*
X134674556Y-90083148D01*
X134691839Y-90092386D01*
X134713155Y-90101215D01*
X134786858Y-90150462D01*
X134849538Y-90213142D01*
X134898785Y-90286845D01*
X134932706Y-90368740D01*
X134950000Y-90455679D01*
X134950000Y-90544321D01*
X134932706Y-90631260D01*
X134898785Y-90713155D01*
X134849538Y-90786858D01*
X134786858Y-90849538D01*
X134713155Y-90898785D01*
X134691839Y-90907614D01*
X134674554Y-90916854D01*
X134659401Y-90929290D01*
X134646964Y-90944444D01*
X134637724Y-90961733D01*
X134632033Y-90980492D01*
X134630112Y-91000001D01*
X134632034Y-91019510D01*
X134637724Y-91038269D01*
X134646966Y-91055558D01*
X134659402Y-91070711D01*
X134674556Y-91083148D01*
X134691839Y-91092386D01*
X134713155Y-91101215D01*
X134786858Y-91150462D01*
X134849538Y-91213142D01*
X134898785Y-91286845D01*
X134932706Y-91368740D01*
X134950000Y-91455679D01*
X134950000Y-91544321D01*
X134932706Y-91631260D01*
X134898785Y-91713155D01*
X134849538Y-91786858D01*
X134786858Y-91849538D01*
X134713155Y-91898785D01*
X134691839Y-91907614D01*
X134674554Y-91916854D01*
X134659401Y-91929290D01*
X134646964Y-91944444D01*
X134637724Y-91961733D01*
X134632033Y-91980492D01*
X134630112Y-92000001D01*
X134632034Y-92019510D01*
X134637724Y-92038269D01*
X134646966Y-92055558D01*
X134659402Y-92070711D01*
X134674556Y-92083148D01*
X134691839Y-92092386D01*
X134713155Y-92101215D01*
X134786858Y-92150462D01*
X134849538Y-92213142D01*
X134898785Y-92286845D01*
X134932706Y-92368740D01*
X134950000Y-92455679D01*
X134950000Y-92544321D01*
X134932706Y-92631260D01*
X134898785Y-92713155D01*
X134849538Y-92786858D01*
X134786858Y-92849538D01*
X134713155Y-92898785D01*
X134691839Y-92907614D01*
X134674554Y-92916854D01*
X134659401Y-92929290D01*
X134646964Y-92944444D01*
X134637724Y-92961733D01*
X134632033Y-92980492D01*
X134630112Y-93000001D01*
X134632034Y-93019510D01*
X134637724Y-93038269D01*
X134646966Y-93055558D01*
X134659402Y-93070711D01*
X134674556Y-93083148D01*
X134691839Y-93092386D01*
X134713155Y-93101215D01*
X134786858Y-93150462D01*
X134849538Y-93213142D01*
X134898785Y-93286845D01*
X134932706Y-93368740D01*
X134950000Y-93455679D01*
X134950000Y-93544321D01*
X134932706Y-93631260D01*
X134898785Y-93713155D01*
X134849538Y-93786858D01*
X134786858Y-93849538D01*
X134713155Y-93898785D01*
X134691839Y-93907614D01*
X134674554Y-93916854D01*
X134659401Y-93929290D01*
X134646964Y-93944444D01*
X134637724Y-93961733D01*
X134632033Y-93980492D01*
X134630112Y-94000001D01*
X134632034Y-94019510D01*
X134637724Y-94038269D01*
X134646966Y-94055558D01*
X134659402Y-94070711D01*
X134674556Y-94083148D01*
X134691839Y-94092386D01*
X134713155Y-94101215D01*
X134786858Y-94150462D01*
X134849538Y-94213142D01*
X134898785Y-94286845D01*
X134932706Y-94368740D01*
X134950000Y-94455679D01*
X134950000Y-94544321D01*
X134932706Y-94631260D01*
X134898785Y-94713155D01*
X134849538Y-94786858D01*
X134786858Y-94849538D01*
X134713155Y-94898785D01*
X134691839Y-94907614D01*
X134674554Y-94916854D01*
X134659401Y-94929290D01*
X134646964Y-94944444D01*
X134637724Y-94961733D01*
X134632033Y-94980492D01*
X134630112Y-95000001D01*
X134632034Y-95019510D01*
X134637724Y-95038269D01*
X134646966Y-95055558D01*
X134659402Y-95070711D01*
X134674556Y-95083148D01*
X134691839Y-95092386D01*
X134713155Y-95101215D01*
X134786858Y-95150462D01*
X134849538Y-95213142D01*
X134898785Y-95286845D01*
X134932706Y-95368740D01*
X134950000Y-95455679D01*
X134950000Y-95544321D01*
X134932706Y-95631260D01*
X134898785Y-95713155D01*
X134849538Y-95786858D01*
X134786858Y-95849538D01*
X134713155Y-95898785D01*
X134648221Y-95925681D01*
X134631261Y-95932706D01*
X134602280Y-95938471D01*
X134544321Y-95950000D01*
X134455679Y-95950000D01*
X134397720Y-95938471D01*
X134368739Y-95932706D01*
X134351778Y-95925681D01*
X134286845Y-95898785D01*
X134213142Y-95849538D01*
X134150462Y-95786858D01*
X134101215Y-95713155D01*
X134067294Y-95631260D01*
X134050000Y-95544321D01*
X134050000Y-95455679D01*
X134067294Y-95368740D01*
X134101215Y-95286845D01*
X134150462Y-95213142D01*
X134213142Y-95150462D01*
X134286845Y-95101215D01*
X134308161Y-95092386D01*
X134325446Y-95083146D01*
X134340599Y-95070710D01*
X134353036Y-95055556D01*
X134362276Y-95038267D01*
X134367967Y-95019508D01*
X134369888Y-94999999D01*
X134367966Y-94980490D01*
X134362276Y-94961731D01*
X134353034Y-94944442D01*
X134340598Y-94929289D01*
X134325444Y-94916852D01*
X134308161Y-94907614D01*
X134286845Y-94898785D01*
X134213142Y-94849538D01*
X134150462Y-94786858D01*
X134101215Y-94713155D01*
X134067294Y-94631260D01*
X134050000Y-94544321D01*
X134050000Y-94455679D01*
X134067294Y-94368740D01*
X134101215Y-94286845D01*
X134150462Y-94213142D01*
X134213142Y-94150462D01*
X134286845Y-94101215D01*
X134308161Y-94092386D01*
X134325446Y-94083146D01*
X134340599Y-94070710D01*
X134353036Y-94055556D01*
X134362276Y-94038267D01*
X134367967Y-94019508D01*
X134369888Y-93999999D01*
X134367966Y-93980490D01*
X134362276Y-93961731D01*
X134353034Y-93944442D01*
X134340598Y-93929289D01*
X134325444Y-93916852D01*
X134308161Y-93907614D01*
X134286845Y-93898785D01*
X134213142Y-93849538D01*
X134150462Y-93786858D01*
X134101215Y-93713155D01*
X134067294Y-93631260D01*
X134050000Y-93544321D01*
X134050000Y-93455679D01*
X134067294Y-93368740D01*
X134101215Y-93286845D01*
X134150462Y-93213142D01*
X134213142Y-93150462D01*
X134286845Y-93101215D01*
X134308161Y-93092386D01*
X134325446Y-93083146D01*
X134340599Y-93070710D01*
X134353036Y-93055556D01*
X134362276Y-93038267D01*
X134367967Y-93019508D01*
X134369888Y-92999999D01*
X134367966Y-92980490D01*
X134362276Y-92961731D01*
X134353034Y-92944442D01*
X134340598Y-92929289D01*
X134325444Y-92916852D01*
X134308161Y-92907614D01*
X134286845Y-92898785D01*
X134213142Y-92849538D01*
X134150462Y-92786858D01*
X134101215Y-92713155D01*
X134067294Y-92631260D01*
X134050000Y-92544321D01*
X134050000Y-92455679D01*
X134067294Y-92368740D01*
X134101215Y-92286845D01*
X134150462Y-92213142D01*
X134213142Y-92150462D01*
X134286845Y-92101215D01*
X134308161Y-92092386D01*
X134325446Y-92083146D01*
X134340599Y-92070710D01*
X134353036Y-92055556D01*
X134362276Y-92038267D01*
X134367967Y-92019508D01*
X134369888Y-91999999D01*
X134367966Y-91980490D01*
X134362276Y-91961731D01*
X134353034Y-91944442D01*
X134340598Y-91929289D01*
X134325444Y-91916852D01*
X134308161Y-91907614D01*
X134286845Y-91898785D01*
X134213142Y-91849538D01*
X134150462Y-91786858D01*
X134101215Y-91713155D01*
X134067294Y-91631260D01*
X134050000Y-91544321D01*
X134050000Y-91455679D01*
X134067294Y-91368740D01*
X134101215Y-91286845D01*
X134150462Y-91213142D01*
X134213142Y-91150462D01*
X134286845Y-91101215D01*
X134308161Y-91092386D01*
X134325446Y-91083146D01*
X134340599Y-91070710D01*
X134353036Y-91055556D01*
X134362276Y-91038267D01*
X134367967Y-91019508D01*
X134369888Y-90999999D01*
X134367966Y-90980490D01*
X134362276Y-90961731D01*
X134353034Y-90944442D01*
X134340598Y-90929289D01*
X134325444Y-90916852D01*
X134308161Y-90907614D01*
X134286845Y-90898785D01*
X134213142Y-90849538D01*
X134150462Y-90786858D01*
X134101215Y-90713155D01*
X134067294Y-90631260D01*
X134050000Y-90544321D01*
X134050000Y-90455679D01*
X134067294Y-90368740D01*
X134101215Y-90286845D01*
X134150462Y-90213142D01*
X134213142Y-90150462D01*
X134286845Y-90101215D01*
X134308161Y-90092386D01*
X134325446Y-90083146D01*
X134340599Y-90070710D01*
X134353036Y-90055556D01*
X134362276Y-90038267D01*
X134367967Y-90019508D01*
X134369888Y-89999999D01*
X134367966Y-89980490D01*
X134362276Y-89961731D01*
X134353034Y-89944442D01*
X134340598Y-89929289D01*
X134325444Y-89916852D01*
X134308161Y-89907614D01*
X134286845Y-89898785D01*
X134213142Y-89849538D01*
X134150462Y-89786858D01*
X134101215Y-89713155D01*
X134067294Y-89631260D01*
X134050000Y-89544321D01*
X134050000Y-89455679D01*
X134067294Y-89368740D01*
X134101215Y-89286845D01*
X134150462Y-89213142D01*
X134213142Y-89150462D01*
X134286845Y-89101215D01*
X134308161Y-89092386D01*
X134325446Y-89083146D01*
X134340599Y-89070710D01*
X134353036Y-89055556D01*
X134362276Y-89038267D01*
X134367967Y-89019508D01*
X134369888Y-88999999D01*
X134367966Y-88980490D01*
X134362276Y-88961731D01*
X134353034Y-88944442D01*
X134340598Y-88929289D01*
X134325444Y-88916852D01*
X134308161Y-88907614D01*
X134286845Y-88898785D01*
X134213142Y-88849538D01*
X134150462Y-88786858D01*
X134101215Y-88713155D01*
X134067294Y-88631260D01*
X134050000Y-88544321D01*
X134050000Y-88455679D01*
X134067294Y-88368740D01*
X134101215Y-88286845D01*
X134150462Y-88213142D01*
X134213142Y-88150462D01*
X134286845Y-88101215D01*
X134308161Y-88092386D01*
X134325446Y-88083146D01*
X134340599Y-88070710D01*
X134353036Y-88055556D01*
X134362276Y-88038267D01*
X134367967Y-88019508D01*
X134369888Y-87999999D01*
X134367966Y-87980490D01*
X134362276Y-87961731D01*
X134353034Y-87944442D01*
X134340598Y-87929289D01*
X134325444Y-87916852D01*
X134308161Y-87907614D01*
X134286845Y-87898785D01*
X134213142Y-87849538D01*
X134150462Y-87786858D01*
X134101215Y-87713155D01*
X134067294Y-87631260D01*
X134050000Y-87544321D01*
X134050000Y-87455679D01*
X134067294Y-87368740D01*
X134101215Y-87286845D01*
X134150462Y-87213142D01*
X134213142Y-87150462D01*
X134286845Y-87101215D01*
X134308161Y-87092386D01*
X134325446Y-87083146D01*
X134340599Y-87070710D01*
X134353036Y-87055556D01*
X134362276Y-87038267D01*
X134367967Y-87019508D01*
X134369888Y-86999999D01*
X134367966Y-86980490D01*
X134362276Y-86961731D01*
X134353034Y-86944442D01*
X134340598Y-86929289D01*
X134325444Y-86916852D01*
X134308161Y-86907614D01*
X134286845Y-86898785D01*
X134213142Y-86849538D01*
X134150462Y-86786858D01*
X134101215Y-86713155D01*
X134067294Y-86631260D01*
X134050000Y-86544321D01*
X134050000Y-86455679D01*
X134067294Y-86368740D01*
X134101215Y-86286845D01*
X134150462Y-86213142D01*
X134213142Y-86150462D01*
X134286845Y-86101215D01*
X134351778Y-86074319D01*
X134368739Y-86067294D01*
X134397720Y-86061529D01*
X134455679Y-86050000D01*
X134544321Y-86050000D01*
X134602280Y-86061529D01*
X134602280Y-86061529D01*
G37*
G36*
X139050000Y-93550000D02*
X137950000Y-93550000D01*
X137950000Y-92450000D01*
X139050000Y-92450000D01*
X139050000Y-93550000D01*
X139050000Y-93550000D01*
G37*
G36*
X140550000Y-93550000D02*
X139450000Y-93550000D01*
X139450000Y-92450000D01*
X140550000Y-92450000D01*
X140550000Y-93550000D01*
X140550000Y-93550000D01*
G37*
G36*
X157050000Y-92800000D02*
X152450000Y-92800000D01*
X152450000Y-92200000D01*
X157050000Y-92200000D01*
X157050000Y-92800000D01*
X157050000Y-92800000D01*
G37*
G36*
X148550000Y-92800000D02*
X143950000Y-92800000D01*
X143950000Y-92200000D01*
X148550000Y-92200000D01*
X148550000Y-92800000D01*
X148550000Y-92800000D01*
G37*
G36*
X148550000Y-91800000D02*
X143950000Y-91800000D01*
X143950000Y-91200000D01*
X148550000Y-91200000D01*
X148550000Y-91800000D01*
X148550000Y-91800000D01*
G37*
G36*
X157050000Y-91800000D02*
X152450000Y-91800000D01*
X152450000Y-91200000D01*
X157050000Y-91200000D01*
X157050000Y-91800000D01*
X157050000Y-91800000D01*
G37*
G36*
X161550000Y-91300000D02*
X160450000Y-91300000D01*
X160450000Y-89700000D01*
X161550000Y-89700000D01*
X161550000Y-91300000D01*
X161550000Y-91300000D01*
G37*
G36*
X163550000Y-91300000D02*
X162450000Y-91300000D01*
X162450000Y-89700000D01*
X163550000Y-89700000D01*
X163550000Y-91300000D01*
X163550000Y-91300000D01*
G37*
G36*
X147050000Y-90800000D02*
X143950000Y-90800000D01*
X143950000Y-90200000D01*
X147050000Y-90200000D01*
X147050000Y-90800000D01*
X147050000Y-90800000D01*
G37*
G36*
X157050000Y-90800000D02*
X153950000Y-90800000D01*
X153950000Y-90200000D01*
X157050000Y-90200000D01*
X157050000Y-90800000D01*
X157050000Y-90800000D01*
G37*
G36*
X140550000Y-90800000D02*
X139450000Y-90800000D01*
X139450000Y-89200000D01*
X140550000Y-89200000D01*
X140550000Y-90800000D01*
X140550000Y-90800000D01*
G37*
G36*
X138550000Y-90800000D02*
X137450000Y-90800000D01*
X137450000Y-89200000D01*
X138550000Y-89200000D01*
X138550000Y-90800000D01*
X138550000Y-90800000D01*
G37*
G36*
X148550000Y-89800000D02*
X143950000Y-89800000D01*
X143950000Y-89200000D01*
X148550000Y-89200000D01*
X148550000Y-89800000D01*
X148550000Y-89800000D01*
G37*
G36*
X157050000Y-89800000D02*
X152450000Y-89800000D01*
X152450000Y-89200000D01*
X157050000Y-89200000D01*
X157050000Y-89800000D01*
X157050000Y-89800000D01*
G37*
G36*
X148550000Y-88800000D02*
X143950000Y-88800000D01*
X143950000Y-88200000D01*
X148550000Y-88200000D01*
X148550000Y-88800000D01*
X148550000Y-88800000D01*
G37*
G36*
X157050000Y-88800000D02*
X152450000Y-88800000D01*
X152450000Y-88200000D01*
X157050000Y-88200000D01*
X157050000Y-88800000D01*
X157050000Y-88800000D01*
G37*
G36*
X161550000Y-88550000D02*
X160450000Y-88550000D01*
X160450000Y-87450000D01*
X161550000Y-87450000D01*
X161550000Y-88550000D01*
X161550000Y-88550000D01*
G37*
G36*
X163050000Y-88550000D02*
X161950000Y-88550000D01*
X161950000Y-87450000D01*
X163050000Y-87450000D01*
X163050000Y-88550000D01*
X163050000Y-88550000D01*
G37*
G36*
X140550000Y-88050000D02*
X139450000Y-88050000D01*
X139450000Y-86950000D01*
X140550000Y-86950000D01*
X140550000Y-88050000D01*
X140550000Y-88050000D01*
G37*
G36*
X139050000Y-88050000D02*
X137950000Y-88050000D01*
X137950000Y-86950000D01*
X139050000Y-86950000D01*
X139050000Y-88050000D01*
X139050000Y-88050000D01*
G37*
M02*
