M48
;DRILL file {KiCad (5.0.0)} date 03/20/19 16:36:07
;FORMAT={3:3/ absolute / metric / keep zeros}
FMAT,2
METRIC,TZ
T1C0.400
T2C0.600
%
G90
G05
M71
T1
X137000Y-087500
X141500Y-087500
X142500Y-092500
X151000Y-093000
X156000Y-094000
X159000Y-088000
X159000Y-090500
X160000Y-093000
X162500Y-092500
X163000Y-093500
X164000Y-088000
X164500Y-090500
T2
X134500Y-086500
X134500Y-087500
X134500Y-088500
X134500Y-089500
X134500Y-090500
X134500Y-091500
X134500Y-092500
X134500Y-093500
X134500Y-094500
X134500Y-095500
X165500Y-086500
X165500Y-087500
X165500Y-088500
X165500Y-089500
X165500Y-090500
X165500Y-091500
X165500Y-092500
X165500Y-093500
X165500Y-094500
X165500Y-095500
T0
M30
