M48
;DRILL file {KiCad (5.0.0)} date 03/20/19 16:31:42
;FORMAT={3:3/ absolute / metric / keep zeros}
FMAT,2
METRIC,TZ
T1C0.400
T2C0.600
%
G90
G05
M71
T1
X139500Y-097500
X141000Y-097500
X143500Y-090210
X145000Y-090210
X146500Y-090210
X146500Y-099000
T2
X137000Y-089310
X137000Y-090560
X137000Y-091810
X137000Y-093060
X137000Y-094310
X137000Y-095560
X137000Y-096810
X137000Y-098060
X149000Y-089310
X149000Y-090560
X149000Y-091810
X149000Y-093060
X149000Y-094310
X149000Y-095560
X149000Y-096810
X149000Y-098060
T0
M30
