M48
;DRILL file {KiCad (5.0.2)-1} date 21.03.2019 15:07:23
;FORMAT={3:3/ absolute / metric / keep zeros}
FMAT,2
METRIC,TZ
T1C0.400
T2C0.600
%
G90
G05
T1
X122500Y-075500
X122500Y-076500
X129250Y-071750
X130250Y-076250
X130250Y-077750
X130500Y-070000
T2
X118500Y-068000
X118500Y-069250
X118500Y-070500
X118500Y-071750
X118500Y-073000
X118500Y-074250
X118500Y-075500
X118500Y-076750
X133500Y-068000
X133500Y-069250
X133500Y-070500
X133500Y-071750
X133500Y-073000
X133500Y-074250
X133500Y-075500
X133500Y-076750
T0
M30
