G04 #@! TF.GenerationSoftware,KiCad,Pcbnew,(5.0.2)-1*
G04 #@! TF.CreationDate,2019-03-21T15:07:10+03:00*
G04 #@! TF.ProjectId,249__25__,3234391a-1f32-4351-9122-2e6b69636164,rev?*
G04 #@! TF.SameCoordinates,Original*
G04 #@! TF.FileFunction,Copper,L1,Top*
G04 #@! TF.FilePolarity,Positive*
%FSLAX46Y46*%
G04 Gerber Fmt 4.6, Leading zero omitted, Abs format (unit mm)*
G04 Created by KiCad (PCBNEW (5.0.2)-1) date 21.03.2019 15:07:10*
%MOMM*%
%LPD*%
G01*
G04 APERTURE LIST*
G04 #@! TA.AperFunction,ComponentPad*
%ADD10C,1.000000*%
G04 #@! TD*
G04 #@! TA.AperFunction,ComponentPad*
%ADD11R,1.000000X1.000000*%
G04 #@! TD*
G04 #@! TA.AperFunction,SMDPad,CuDef*
%ADD12O,1.473200X0.609600*%
G04 #@! TD*
G04 #@! TA.AperFunction,SMDPad,CuDef*
%ADD13R,1.473200X0.609600*%
G04 #@! TD*
G04 #@! TA.AperFunction,SMDPad,CuDef*
%ADD14R,0.609600X1.473200*%
G04 #@! TD*
G04 #@! TA.AperFunction,SMDPad,CuDef*
%ADD15O,0.609600X1.473200*%
G04 #@! TD*
G04 #@! TA.AperFunction,ViaPad*
%ADD16C,0.800000*%
G04 #@! TD*
G04 #@! TA.AperFunction,Conductor*
%ADD17C,0.250000*%
G04 #@! TD*
G04 APERTURE END LIST*
D10*
G04 #@! TO.P,DA1,1*
G04 #@! TO.N,/in_1*
X118500000Y-68000000D03*
D11*
G04 #@! TO.P,DA1,16*
G04 #@! TO.N,/out1_1*
X133500000Y-68000000D03*
G04 #@! TO.P,DA1,2*
G04 #@! TO.N,/gnd_1*
X118500000Y-69250000D03*
G04 #@! TO.P,DA1,15*
G04 #@! TO.N,/out2_1*
X133500000Y-69250000D03*
G04 #@! TO.P,DA1,3*
G04 #@! TO.N,/in_2*
X118500000Y-70500000D03*
G04 #@! TO.P,DA1,14*
G04 #@! TO.N,/out1_2*
X133500000Y-70500000D03*
G04 #@! TO.P,DA1,4*
G04 #@! TO.N,/gnd_2*
X118500000Y-71750000D03*
G04 #@! TO.P,DA1,13*
G04 #@! TO.N,/out2_2*
X133500000Y-71750000D03*
G04 #@! TO.P,DA1,5*
G04 #@! TO.N,/in_3*
X118500000Y-73000000D03*
G04 #@! TO.P,DA1,12*
G04 #@! TO.N,/out1_3*
X133500000Y-73000000D03*
G04 #@! TO.P,DA1,6*
G04 #@! TO.N,/gnd_3*
X118500000Y-74250000D03*
G04 #@! TO.P,DA1,11*
G04 #@! TO.N,/out2_3*
X133500000Y-74250000D03*
G04 #@! TO.P,DA1,7*
G04 #@! TO.N,/in_4*
X118500000Y-75500000D03*
G04 #@! TO.P,DA1,10*
G04 #@! TO.N,/out1_4*
X133500000Y-75500000D03*
G04 #@! TO.P,DA1,8*
G04 #@! TO.N,/gnd_4*
X118500000Y-76750000D03*
G04 #@! TO.P,DA1,9*
G04 #@! TO.N,/out2_4*
X133500000Y-76750000D03*
G04 #@! TD*
D12*
G04 #@! TO.P,DA2,1*
G04 #@! TO.N,/in_1*
X120706000Y-66595000D03*
D13*
G04 #@! TO.P,DA2,2*
G04 #@! TO.N,/gnd_1*
X120706000Y-69135000D03*
G04 #@! TO.P,DA2,3*
G04 #@! TO.N,/out2_1*
X127044000Y-69135000D03*
G04 #@! TO.P,DA2,4*
G04 #@! TO.N,/out1_1*
X127044000Y-66595000D03*
G04 #@! TD*
G04 #@! TO.P,DA3,4*
G04 #@! TO.N,/out1_2*
X127044000Y-71095000D03*
G04 #@! TO.P,DA3,3*
G04 #@! TO.N,/out2_2*
X127044000Y-73635000D03*
G04 #@! TO.P,DA3,2*
G04 #@! TO.N,/gnd_2*
X120706000Y-73635000D03*
D12*
G04 #@! TO.P,DA3,1*
G04 #@! TO.N,/in_2*
X120706000Y-71095000D03*
G04 #@! TD*
G04 #@! TO.P,DA4,1*
G04 #@! TO.N,/in_3*
X120706000Y-75595000D03*
D13*
G04 #@! TO.P,DA4,2*
G04 #@! TO.N,/gnd_3*
X120706000Y-78135000D03*
G04 #@! TO.P,DA4,3*
G04 #@! TO.N,/out2_3*
X127044000Y-78135000D03*
G04 #@! TO.P,DA4,4*
G04 #@! TO.N,/out1_3*
X127044000Y-75595000D03*
G04 #@! TD*
D14*
G04 #@! TO.P,DA5,4*
G04 #@! TO.N,/out1_4*
X129095000Y-69956000D03*
G04 #@! TO.P,DA5,3*
G04 #@! TO.N,/out2_4*
X131635000Y-69956000D03*
G04 #@! TO.P,DA5,2*
G04 #@! TO.N,/gnd_4*
X131635000Y-76294000D03*
D15*
G04 #@! TO.P,DA5,1*
G04 #@! TO.N,/in_4*
X129095000Y-76294000D03*
G04 #@! TD*
D16*
G04 #@! TO.N,/in_3*
X122500000Y-75500000D03*
G04 #@! TO.N,/gnd_3*
X122500000Y-76500000D03*
G04 #@! TO.N,/in_4*
X130250000Y-76250000D03*
G04 #@! TO.N,/out1_4*
X130500000Y-70000000D03*
G04 #@! TO.N,/gnd_4*
X130250000Y-77750000D03*
G04 #@! TO.N,/out2_4*
X129250000Y-71750000D03*
G04 #@! TD*
D17*
G04 #@! TO.N,*
X121400000Y-66000000D02*
X121400000Y-65900010D01*
X121400000Y-65900010D02*
X122399990Y-65900010D01*
X121400000Y-70400010D02*
X122399990Y-70400010D01*
X121400000Y-70500000D02*
X121400000Y-70400010D01*
X121400000Y-74900010D02*
X122399990Y-74900010D01*
X121400000Y-75000000D02*
X121400000Y-74900010D01*
X126350000Y-78829990D02*
X125350010Y-78829990D01*
X126349999Y-78730000D02*
X126350000Y-78829990D01*
X126350000Y-74329990D02*
X125350010Y-74329990D01*
X126349999Y-74230000D02*
X126350000Y-74329990D01*
X126350000Y-69829990D02*
X125350010Y-69829990D01*
X126349999Y-69730000D02*
X126350000Y-69829990D01*
X132500000Y-75600000D02*
X132400000Y-75600000D01*
X132500000Y-75600000D02*
X132500000Y-74700000D01*
X128230001Y-70650000D02*
X128330000Y-70650000D01*
X128230001Y-70650000D02*
X128230000Y-71550000D01*
X119000000Y-67000000D02*
X119000000Y-66500000D01*
X119000000Y-77750000D02*
X119000000Y-78000000D01*
X119000000Y-78000000D02*
X118750000Y-78000000D01*
X119000000Y-78000000D02*
X119250000Y-78000000D01*
G04 #@! TO.N,/in_1*
X118869200Y-68000000D02*
X118650010Y-68000000D01*
X120274200Y-66595000D02*
X118869200Y-68000000D01*
X120706000Y-66595000D02*
X120274200Y-66595000D01*
G04 #@! TO.N,/out1_1*
X133500000Y-68000000D02*
X130000000Y-68000000D01*
X128595000Y-66595000D02*
X127044000Y-66595000D01*
X130000000Y-68000000D02*
X128595000Y-66595000D01*
G04 #@! TO.N,/gnd_1*
X118615000Y-69135000D02*
X118500000Y-69250000D01*
X120706000Y-69135000D02*
X118615000Y-69135000D01*
G04 #@! TO.N,/out2_1*
X128000000Y-69135000D02*
X127044000Y-69135000D01*
X128635000Y-68500000D02*
X128000000Y-69135000D01*
X132000000Y-68500000D02*
X128635000Y-68500000D01*
X132750000Y-69250000D02*
X132000000Y-68500000D01*
X133500000Y-69250000D02*
X132750000Y-69250000D01*
G04 #@! TO.N,/in_2*
X119000000Y-70500000D02*
X118500000Y-70500000D01*
X120706000Y-71095000D02*
X119595000Y-71095000D01*
X119595000Y-71095000D02*
X119000000Y-70500000D01*
G04 #@! TO.N,/out1_2*
X127044000Y-72044000D02*
X127044000Y-71095000D01*
X127500000Y-72500000D02*
X127044000Y-72044000D01*
X130750000Y-72500000D02*
X127500000Y-72500000D01*
X133500000Y-70500000D02*
X132750000Y-70500000D01*
X132750000Y-70500000D02*
X130750000Y-72500000D01*
G04 #@! TO.N,/gnd_2*
X119250000Y-71750000D02*
X118500000Y-71750000D01*
X119719400Y-73635000D02*
X119500000Y-73415600D01*
X120706000Y-73635000D02*
X119719400Y-73635000D01*
X119500000Y-72000000D02*
X119250000Y-71750000D01*
X119500000Y-73415600D02*
X119500000Y-72000000D01*
G04 #@! TO.N,/out2_2*
X132500000Y-71750000D02*
X133500000Y-71750000D01*
X130615000Y-73635000D02*
X132500000Y-71750000D01*
X127044000Y-73635000D02*
X130615000Y-73635000D01*
G04 #@! TO.N,/in_3*
X120706000Y-75595000D02*
X122405000Y-75595000D01*
X122405000Y-75595000D02*
X122500000Y-75500000D01*
G04 #@! TO.N,/out1_3*
X127044000Y-75040200D02*
X127584200Y-74500000D01*
X127044000Y-75595000D02*
X127044000Y-75040200D01*
X127584200Y-74500000D02*
X130500000Y-74500000D01*
X132000000Y-73000000D02*
X133500000Y-73000000D01*
X130500000Y-74500000D02*
X132000000Y-73000000D01*
G04 #@! TO.N,/gnd_3*
X121692600Y-78135000D02*
X122500000Y-77327600D01*
X120706000Y-78135000D02*
X121692600Y-78135000D01*
X122500000Y-77327600D02*
X122500000Y-76500000D01*
G04 #@! TO.N,/out2_3*
X131500000Y-74250000D02*
X133500000Y-74250000D01*
X127044000Y-78135000D02*
X128030600Y-78135000D01*
X128030600Y-78135000D02*
X128250000Y-77915600D01*
X128250000Y-77915600D02*
X128250000Y-75500000D01*
X128250000Y-75500000D02*
X128750000Y-75000000D01*
X128750000Y-75000000D02*
X130750000Y-75000000D01*
X130750000Y-75000000D02*
X131500000Y-74250000D01*
G04 #@! TO.N,/in_4*
X129095000Y-76294000D02*
X130206000Y-76294000D01*
X130206000Y-76294000D02*
X130250000Y-76250000D01*
G04 #@! TO.N,/out1_4*
X129095000Y-69956000D02*
X130456000Y-69956000D01*
X130456000Y-69956000D02*
X130500000Y-70000000D01*
G04 #@! TO.N,/gnd_4*
X131635000Y-77280600D02*
X131165600Y-77750000D01*
X131635000Y-76294000D02*
X131635000Y-77280600D01*
X131165600Y-77750000D02*
X130250000Y-77750000D01*
G04 #@! TO.N,/out2_4*
X131635000Y-70942600D02*
X130827600Y-71750000D01*
X131635000Y-69956000D02*
X131635000Y-70942600D01*
X130827600Y-71750000D02*
X129250000Y-71750000D01*
G04 #@! TD*
M02*
