G04 #@! TF.GenerationSoftware,KiCad,Pcbnew,(5.0.0)*
G04 #@! TF.CreationDate,2019-04-19T16:06:08+03:00*
G04 #@! TF.ProjectId,can_adapter,63616E5F616461707465722E6B696361,rev?*
G04 #@! TF.SameCoordinates,Original*
G04 #@! TF.FileFunction,Soldermask,Top*
G04 #@! TF.FilePolarity,Negative*
%FSLAX46Y46*%
G04 Gerber Fmt 4.6, Leading zero omitted, Abs format (unit mm)*
G04 Created by KiCad (PCBNEW (5.0.0)) date 04/19/19 16:06:08*
%MOMM*%
%LPD*%
G01*
G04 APERTURE LIST*
%ADD10C,0.200000*%
G04 APERTURE END LIST*
D10*
G36*
X187050000Y-59800000D02*
X185950000Y-59800000D01*
X185950000Y-58200000D01*
X187050000Y-58200000D01*
X187050000Y-59800000D01*
X187050000Y-59800000D01*
G37*
G36*
X165050000Y-59800000D02*
X163950000Y-59800000D01*
X163950000Y-58200000D01*
X165050000Y-58200000D01*
X165050000Y-59800000D01*
X165050000Y-59800000D01*
G37*
G36*
X163050000Y-59800000D02*
X161950000Y-59800000D01*
X161950000Y-58200000D01*
X163050000Y-58200000D01*
X163050000Y-59800000D01*
X163050000Y-59800000D01*
G37*
G36*
X185050000Y-59800000D02*
X183950000Y-59800000D01*
X183950000Y-58200000D01*
X185050000Y-58200000D01*
X185050000Y-59800000D01*
X185050000Y-59800000D01*
G37*
G36*
X168050000Y-59550000D02*
X166950000Y-59550000D01*
X166950000Y-58450000D01*
X168050000Y-58450000D01*
X168050000Y-59550000D01*
X168050000Y-59550000D01*
G37*
G36*
X169550000Y-59550000D02*
X168450000Y-59550000D01*
X168450000Y-58450000D01*
X169550000Y-58450000D01*
X169550000Y-59550000D01*
X169550000Y-59550000D01*
G37*
G36*
X192150000Y-59450000D02*
X190850000Y-59450000D01*
X190850000Y-49550000D01*
X192150000Y-49550000D01*
X192150000Y-59450000D01*
X192150000Y-59450000D01*
G37*
G36*
X160788212Y-49556510D02*
X160788215Y-49556511D01*
X160873041Y-49582243D01*
X160873043Y-49582244D01*
X160951213Y-49624026D01*
X161019737Y-49680263D01*
X161075974Y-49748787D01*
X161117756Y-49826957D01*
X161143490Y-49911788D01*
X161152178Y-50000000D01*
X161143490Y-50088212D01*
X161117756Y-50173043D01*
X161075974Y-50251213D01*
X161019737Y-50319737D01*
X160955203Y-50372699D01*
X160941342Y-50386561D01*
X160930451Y-50402861D01*
X160922949Y-50420972D01*
X160919124Y-50440199D01*
X160919125Y-50459802D01*
X160922949Y-50479029D01*
X160930451Y-50497140D01*
X160941342Y-50513440D01*
X160955204Y-50527301D01*
X160971504Y-50538192D01*
X160989615Y-50545694D01*
X161018643Y-50550000D01*
X161150000Y-50550000D01*
X161150000Y-59450000D01*
X159850000Y-59450000D01*
X159850000Y-50550000D01*
X159981357Y-50550000D01*
X160000866Y-50548079D01*
X160019625Y-50542388D01*
X160036914Y-50533147D01*
X160052068Y-50520711D01*
X160064504Y-50505557D01*
X160073745Y-50488268D01*
X160079436Y-50469509D01*
X160081357Y-50450000D01*
X160079436Y-50430491D01*
X160073745Y-50411732D01*
X160064504Y-50394443D01*
X160044797Y-50372699D01*
X159980263Y-50319737D01*
X159924026Y-50251213D01*
X159882244Y-50173043D01*
X159856510Y-50088212D01*
X159847822Y-50000000D01*
X159856510Y-49911788D01*
X159882244Y-49826957D01*
X159924026Y-49748787D01*
X159980263Y-49680263D01*
X160048787Y-49624026D01*
X160126957Y-49582244D01*
X160126959Y-49582243D01*
X160211785Y-49556511D01*
X160211788Y-49556510D01*
X160277889Y-49550000D01*
X160722111Y-49550000D01*
X160788212Y-49556510D01*
X160788212Y-49556510D01*
G37*
G36*
X182275000Y-58685000D02*
X179825000Y-58685000D01*
X179825000Y-57935000D01*
X182275000Y-57935000D01*
X182275000Y-58685000D01*
X182275000Y-58685000D01*
G37*
G36*
X173175000Y-58685000D02*
X170725000Y-58685000D01*
X170725000Y-57935000D01*
X173175000Y-57935000D01*
X173175000Y-58685000D01*
X173175000Y-58685000D01*
G37*
G36*
X173175000Y-56145000D02*
X170725000Y-56145000D01*
X170725000Y-55395000D01*
X173175000Y-55395000D01*
X173175000Y-56145000D01*
X173175000Y-56145000D01*
G37*
G36*
X182275000Y-56145000D02*
X179825000Y-56145000D01*
X179825000Y-55395000D01*
X182275000Y-55395000D01*
X182275000Y-56145000D01*
X182275000Y-56145000D01*
G37*
G36*
X185050000Y-55050000D02*
X183950000Y-55050000D01*
X183950000Y-53950000D01*
X185050000Y-53950000D01*
X185050000Y-55050000D01*
X185050000Y-55050000D01*
G37*
G36*
X186550000Y-55050000D02*
X185450000Y-55050000D01*
X185450000Y-53950000D01*
X186550000Y-53950000D01*
X186550000Y-55050000D01*
X186550000Y-55050000D01*
G37*
G36*
X182275000Y-53605000D02*
X179825000Y-53605000D01*
X179825000Y-52855000D01*
X182275000Y-52855000D01*
X182275000Y-53605000D01*
X182275000Y-53605000D01*
G37*
G36*
X173175000Y-53605000D02*
X170725000Y-53605000D01*
X170725000Y-52855000D01*
X173175000Y-52855000D01*
X173175000Y-53605000D01*
X173175000Y-53605000D01*
G37*
G36*
X182275000Y-51065000D02*
X179825000Y-51065000D01*
X179825000Y-50315000D01*
X182275000Y-50315000D01*
X182275000Y-51065000D01*
X182275000Y-51065000D01*
G37*
G36*
X173175000Y-51065000D02*
X170725000Y-51065000D01*
X170725000Y-50315000D01*
X173175000Y-50315000D01*
X173175000Y-51065000D01*
X173175000Y-51065000D01*
G37*
G36*
X163050000Y-50800000D02*
X161950000Y-50800000D01*
X161950000Y-49200000D01*
X163050000Y-49200000D01*
X163050000Y-50800000D01*
X163050000Y-50800000D01*
G37*
G36*
X165050000Y-50800000D02*
X163950000Y-50800000D01*
X163950000Y-49200000D01*
X165050000Y-49200000D01*
X165050000Y-50800000D01*
X165050000Y-50800000D01*
G37*
G36*
X169550000Y-50550000D02*
X168450000Y-50550000D01*
X168450000Y-49450000D01*
X169550000Y-49450000D01*
X169550000Y-50550000D01*
X169550000Y-50550000D01*
G37*
G36*
X168050000Y-50550000D02*
X166950000Y-50550000D01*
X166950000Y-49450000D01*
X168050000Y-49450000D01*
X168050000Y-50550000D01*
X168050000Y-50550000D01*
G37*
M02*
