G04 #@! TF.GenerationSoftware,KiCad,Pcbnew,(5.0.0)*
G04 #@! TF.CreationDate,2019-04-19T16:09:17+03:00*
G04 #@! TF.ProjectId,__________ 2_419__293__11__,1F354035453E343D383A20321C343139,rev?*
G04 #@! TF.SameCoordinates,Original*
G04 #@! TF.FileFunction,Copper,L2,Bot,Signal*
G04 #@! TF.FilePolarity,Positive*
%FSLAX46Y46*%
G04 Gerber Fmt 4.6, Leading zero omitted, Abs format (unit mm)*
G04 Created by KiCad (PCBNEW (5.0.0)) date 04/19/19 16:09:17*
%MOMM*%
%LPD*%
G01*
G04 APERTURE LIST*
G04 #@! TA.AperFunction,NonConductor*
%ADD10C,0.300000*%
G04 #@! TD*
G04 #@! TA.AperFunction,ComponentPad*
%ADD11R,2.000000X2.000000*%
G04 #@! TD*
G04 #@! TA.AperFunction,ComponentPad*
%ADD12C,2.000000*%
G04 #@! TD*
G04 APERTURE END LIST*
D10*
X168428571Y-45821428D02*
X168357142Y-45750000D01*
X168214285Y-45678571D01*
X167857142Y-45678571D01*
X167714285Y-45750000D01*
X167642857Y-45821428D01*
X167571428Y-45964285D01*
X167571428Y-46107142D01*
X167642857Y-46321428D01*
X168500000Y-47178571D01*
X167571428Y-47178571D01*
X166928571Y-47178571D02*
X166928571Y-45678571D01*
X166428571Y-46750000D01*
X165928571Y-45678571D01*
X165928571Y-47178571D01*
X164571428Y-46178571D02*
X164571428Y-47178571D01*
X164928571Y-45607142D02*
X165285714Y-46678571D01*
X164357142Y-46678571D01*
X163000000Y-47178571D02*
X163857142Y-47178571D01*
X163428571Y-47178571D02*
X163428571Y-45678571D01*
X163571428Y-45892857D01*
X163714285Y-46035714D01*
X163857142Y-46107142D01*
X162285714Y-47178571D02*
X162000000Y-47178571D01*
X161857142Y-47107142D01*
X161785714Y-47035714D01*
X161642857Y-46821428D01*
X161571428Y-46535714D01*
X161571428Y-45964285D01*
X161642857Y-45821428D01*
X161714285Y-45750000D01*
X161857142Y-45678571D01*
X162142857Y-45678571D01*
X162285714Y-45750000D01*
X162357142Y-45821428D01*
X162428571Y-45964285D01*
X162428571Y-46321428D01*
X162357142Y-46464285D01*
X162285714Y-46535714D01*
X162142857Y-46607142D01*
X161857142Y-46607142D01*
X161714285Y-46535714D01*
X161642857Y-46464285D01*
X161571428Y-46321428D01*
X169107142Y-43678571D02*
X169107142Y-42678571D01*
X169107142Y-42821428D02*
X169035714Y-42750000D01*
X168892857Y-42678571D01*
X168678571Y-42678571D01*
X168535714Y-42750000D01*
X168464285Y-42892857D01*
X168464285Y-43678571D01*
X168464285Y-42892857D02*
X168392857Y-42750000D01*
X168250000Y-42678571D01*
X168035714Y-42678571D01*
X167892857Y-42750000D01*
X167821428Y-42892857D01*
X167821428Y-43678571D01*
X166464285Y-43678571D02*
X166464285Y-42892857D01*
X166535714Y-42750000D01*
X166678571Y-42678571D01*
X166964285Y-42678571D01*
X167107142Y-42750000D01*
X166464285Y-43607142D02*
X166607142Y-43678571D01*
X166964285Y-43678571D01*
X167107142Y-43607142D01*
X167178571Y-43464285D01*
X167178571Y-43321428D01*
X167107142Y-43178571D01*
X166964285Y-43107142D01*
X166607142Y-43107142D01*
X166464285Y-43035714D01*
X165964285Y-42678571D02*
X165392857Y-42678571D01*
X165750000Y-43678571D02*
X165750000Y-42392857D01*
X165678571Y-42250000D01*
X165535714Y-42178571D01*
X165392857Y-42178571D01*
X164892857Y-43535714D02*
X164821428Y-43607142D01*
X164892857Y-43678571D01*
X164964285Y-43607142D01*
X164892857Y-43535714D01*
X164892857Y-43678571D01*
X163892857Y-42178571D02*
X163750000Y-42178571D01*
X163607142Y-42250000D01*
X163535714Y-42321428D01*
X163464285Y-42464285D01*
X163392857Y-42750000D01*
X163392857Y-43107142D01*
X163464285Y-43392857D01*
X163535714Y-43535714D01*
X163607142Y-43607142D01*
X163750000Y-43678571D01*
X163892857Y-43678571D01*
X164035714Y-43607142D01*
X164107142Y-43535714D01*
X164178571Y-43392857D01*
X164250000Y-43107142D01*
X164250000Y-42750000D01*
X164178571Y-42464285D01*
X164107142Y-42321428D01*
X164035714Y-42250000D01*
X163892857Y-42178571D01*
X163107142Y-43821428D02*
X161964285Y-43821428D01*
X160892857Y-42178571D02*
X161607142Y-42178571D01*
X161678571Y-42892857D01*
X161607142Y-42821428D01*
X161464285Y-42750000D01*
X161107142Y-42750000D01*
X160964285Y-42821428D01*
X160892857Y-42892857D01*
X160821428Y-43035714D01*
X160821428Y-43392857D01*
X160892857Y-43535714D01*
X160964285Y-43607142D01*
X161107142Y-43678571D01*
X161464285Y-43678571D01*
X161607142Y-43607142D01*
X161678571Y-43535714D01*
D11*
G04 #@! TO.P,DA1,5*
G04 #@! TO.N,GND*
X172200000Y-78000000D03*
G04 #@! TO.P,DA1,4*
G04 #@! TO.N,Vcc*
X168900000Y-78000000D03*
G04 #@! TO.P,DA1,3*
G04 #@! TO.N,GND2*
X165600000Y-78000000D03*
G04 #@! TO.P,DA1,2*
G04 #@! TO.N,Vcc2*
X162300000Y-78000000D03*
D12*
G04 #@! TO.P,DA1,1*
G04 #@! TO.N,N/C*
X159000000Y-78000000D03*
G04 #@! TD*
M02*
