G04 #@! TF.GenerationSoftware,KiCad,Pcbnew,(5.0.0)*
G04 #@! TF.CreationDate,2019-04-19T16:07:06+03:00*
G04 #@! TF.ProjectId,Rs485_adapter,52733438355F616461707465722E6B69,rev?*
G04 #@! TF.SameCoordinates,Original*
G04 #@! TF.FileFunction,Copper,L1,Top,Signal*
G04 #@! TF.FilePolarity,Positive*
%FSLAX46Y46*%
G04 Gerber Fmt 4.6, Leading zero omitted, Abs format (unit mm)*
G04 Created by KiCad (PCBNEW (5.0.0)) date 04/19/19 16:07:06*
%MOMM*%
%LPD*%
G01*
G04 APERTURE LIST*
G04 #@! TA.AperFunction,NonConductor*
%ADD10C,0.300000*%
G04 #@! TD*
G04 #@! TA.AperFunction,ComponentPad*
%ADD11O,1.200000X0.800000*%
G04 #@! TD*
G04 #@! TA.AperFunction,ComponentPad*
%ADD12R,1.200000X0.800000*%
G04 #@! TD*
G04 #@! TA.AperFunction,SMDPad,CuDef*
%ADD13R,4.500000X0.500000*%
G04 #@! TD*
G04 #@! TA.AperFunction,SMDPad,CuDef*
%ADD14R,3.000000X0.500000*%
G04 #@! TD*
G04 #@! TA.AperFunction,SMDPad,CuDef*
%ADD15R,1.000000X1.000000*%
G04 #@! TD*
G04 #@! TA.AperFunction,SMDPad,CuDef*
%ADD16R,1.000000X1.500000*%
G04 #@! TD*
G04 #@! TA.AperFunction,ViaPad*
%ADD17C,0.800000*%
G04 #@! TD*
G04 #@! TA.AperFunction,Conductor*
%ADD18C,0.250000*%
G04 #@! TD*
G04 APERTURE END LIST*
D10*
X159000000Y-95978571D02*
X159000000Y-96978571D01*
X159142857Y-96407142D02*
X159571428Y-96978571D01*
X159571428Y-95978571D02*
X159000000Y-96550000D01*
X145892857Y-87478571D02*
X145750000Y-87407142D01*
X145678571Y-87335714D01*
X145607142Y-87192857D01*
X145607142Y-86764285D01*
X145678571Y-86621428D01*
X145750000Y-86550000D01*
X145892857Y-86478571D01*
X146107142Y-86478571D01*
X146250000Y-86550000D01*
X146321428Y-86621428D01*
X146392857Y-86764285D01*
X146392857Y-87192857D01*
X146321428Y-87335714D01*
X146250000Y-87407142D01*
X146107142Y-87478571D01*
X145892857Y-87478571D01*
D11*
G04 #@! TO.P,A1,1A*
G04 #@! TO.N,Net-(A1-Pad1A)*
X134500000Y-86500000D03*
D12*
G04 #@! TO.P,A1,1B*
G04 #@! TO.N,Net-(A1-Pad1B)*
X165500000Y-95500000D03*
G04 #@! TO.P,A1,2A*
G04 #@! TO.N,Net-(A1-Pad2A)*
X134500000Y-87500000D03*
G04 #@! TO.P,A1,3A*
G04 #@! TO.N,Net-(A1-Pad3A)*
X134500000Y-88500000D03*
G04 #@! TO.P,A1,4A*
G04 #@! TO.N,Net-(A1-Pad4A)*
X134500000Y-89500000D03*
G04 #@! TO.P,A1,5A*
G04 #@! TO.N,Net-(A1-Pad5A)*
X134500000Y-90500000D03*
G04 #@! TO.P,A1,6A*
G04 #@! TO.N,Net-(A1-Pad6A)*
X134500000Y-91500000D03*
G04 #@! TO.P,A1,7A*
G04 #@! TO.N,Net-(A1-Pad1B)*
X134500000Y-92500000D03*
G04 #@! TO.P,A1,8A*
X134500000Y-93500000D03*
G04 #@! TO.P,A1,9A*
G04 #@! TO.N,Net-(A1-Pad9A)*
X134500000Y-94500000D03*
G04 #@! TO.P,A1,10A*
G04 #@! TO.N,Net-(A1-Pad10A)*
X134500000Y-95500000D03*
G04 #@! TO.P,A1,2B*
G04 #@! TO.N,Net-(A1-Pad1B)*
X165500000Y-94500000D03*
G04 #@! TO.P,A1,3B*
G04 #@! TO.N,Net-(A1-Pad3B)*
X165500000Y-93500000D03*
G04 #@! TO.P,A1,4B*
G04 #@! TO.N,Net-(A1-Pad4B)*
X165500000Y-92500000D03*
G04 #@! TO.P,A1,5B*
G04 #@! TO.N,Net-(A1-Pad5B)*
X165500000Y-91500000D03*
G04 #@! TO.P,A1,6B*
G04 #@! TO.N,Net-(A1-Pad6B)*
X165500000Y-90500000D03*
G04 #@! TO.P,A1,7B*
G04 #@! TO.N,Net-(A1-Pad4B)*
X165500000Y-89500000D03*
G04 #@! TO.P,A1,8B*
G04 #@! TO.N,Net-(A1-Pad3B)*
X165500000Y-88500000D03*
G04 #@! TO.P,A1,9B*
G04 #@! TO.N,Net-(A1-Pad9B)*
X165500000Y-87500000D03*
G04 #@! TO.P,A1,10B*
G04 #@! TO.N,Net-(A1-Pad10B)*
X165500000Y-86500000D03*
G04 #@! TD*
D13*
G04 #@! TO.P,DD1,1*
G04 #@! TO.N,Net-(A1-Pad5A)*
X146250000Y-88500000D03*
G04 #@! TO.P,DD1,2*
G04 #@! TO.N,Net-(A1-Pad6B)*
X146250000Y-89500000D03*
D14*
G04 #@! TO.P,DD1,*
G04 #@! TO.N,*
X145500000Y-90500000D03*
D13*
G04 #@! TO.P,DD1,3*
G04 #@! TO.N,Net-(A1-Pad6B)*
X146250000Y-91500000D03*
G04 #@! TO.P,DD1,4*
G04 #@! TO.N,Net-(A1-Pad4A)*
X146250000Y-92500000D03*
G04 #@! TO.P,DD1,8*
G04 #@! TO.N,Net-(A1-Pad9B)*
X154750000Y-88500000D03*
G04 #@! TO.P,DD1,7*
G04 #@! TO.N,Net-(A1-Pad4B)*
X154750000Y-89500000D03*
D14*
G04 #@! TO.P,DD1,*
G04 #@! TO.N,*
X155500000Y-90500000D03*
D13*
G04 #@! TO.P,DD1,6*
G04 #@! TO.N,Net-(A1-Pad3B)*
X154750000Y-91500000D03*
G04 #@! TO.P,DD1,5*
G04 #@! TO.N,Net-(A1-Pad1B)*
X154750000Y-92500000D03*
G04 #@! TD*
D15*
G04 #@! TO.P,HL1,2*
G04 #@! TO.N,Net-(A1-Pad1B)*
X138500000Y-93000000D03*
G04 #@! TO.P,HL1,1*
G04 #@! TO.N,Net-(HL1-Pad1)*
X140000000Y-93000000D03*
G04 #@! TD*
G04 #@! TO.P,HL2,1*
G04 #@! TO.N,Net-(HL2-Pad1)*
X140000000Y-87500000D03*
G04 #@! TO.P,HL2,2*
G04 #@! TO.N,Net-(A1-Pad1B)*
X138500000Y-87500000D03*
G04 #@! TD*
G04 #@! TO.P,HL3,1*
G04 #@! TO.N,Net-(HL3-Pad1)*
X161000000Y-88000000D03*
G04 #@! TO.P,HL3,2*
G04 #@! TO.N,Net-(A1-Pad1B)*
X162500000Y-88000000D03*
G04 #@! TD*
D16*
G04 #@! TO.P,R1,2*
G04 #@! TO.N,Net-(A1-Pad1B)*
X161000000Y-95500000D03*
G04 #@! TO.P,R1,1*
G04 #@! TO.N,Net-(A1-Pad6B)*
X163000000Y-95500000D03*
G04 #@! TD*
G04 #@! TO.P,R2,2*
G04 #@! TO.N,Net-(A1-Pad10A)*
X138000000Y-95500000D03*
G04 #@! TO.P,R2,1*
G04 #@! TO.N,Net-(HL1-Pad1)*
X140000000Y-95500000D03*
G04 #@! TD*
G04 #@! TO.P,R3,1*
G04 #@! TO.N,Net-(HL2-Pad1)*
X140000000Y-90000000D03*
G04 #@! TO.P,R3,2*
G04 #@! TO.N,Net-(A1-Pad6A)*
X138000000Y-90000000D03*
G04 #@! TD*
G04 #@! TO.P,R4,1*
G04 #@! TO.N,Net-(A1-Pad6B)*
X163000000Y-90500000D03*
G04 #@! TO.P,R4,2*
G04 #@! TO.N,Net-(HL3-Pad1)*
X161000000Y-90500000D03*
G04 #@! TD*
D17*
G04 #@! TO.N,Net-(A1-Pad1B)*
X141500000Y-87500000D03*
X137000000Y-87500000D03*
X164000000Y-88000000D03*
X160000000Y-93000000D03*
G04 #@! TO.N,Net-(A1-Pad4A)*
X142500000Y-92500000D03*
G04 #@! TO.N,Net-(A1-Pad3B)*
X162500000Y-92500000D03*
G04 #@! TO.N,Net-(A1-Pad4B)*
X151000000Y-93000000D03*
G04 #@! TO.N,Net-(A1-Pad6B)*
X163000000Y-93500000D03*
X156000000Y-94000000D03*
X164100000Y-91800000D03*
G04 #@! TO.N,Net-(HL3-Pad1)*
X159000000Y-90500000D03*
X159000000Y-88000000D03*
G04 #@! TD*
D18*
G04 #@! TO.N,*
X140000000Y-86000000D02*
X139000000Y-86000000D01*
X139500000Y-86500000D02*
X139500000Y-85500000D01*
X139500000Y-85500000D02*
X139000000Y-86000000D01*
X139000000Y-86000000D02*
X138500000Y-86000000D01*
X139500000Y-86500000D02*
X139000000Y-86000000D01*
X161000001Y-86500000D02*
X161999999Y-86500000D01*
X161500000Y-86000001D02*
X161500000Y-86999999D01*
X161500000Y-86999999D02*
X161999999Y-86500000D01*
X161999999Y-86500000D02*
X162500000Y-86500000D01*
X161500000Y-86000001D02*
X161999999Y-86500000D01*
X135000000Y-85250000D02*
X135000000Y-85750000D01*
X162000000Y-86000000D02*
X162000000Y-87000000D01*
X139000000Y-85500000D02*
X139000000Y-86500000D01*
G04 #@! TO.N,Net-(A1-Pad1B)*
X154750000Y-92500000D02*
X159500000Y-92500000D01*
X161000000Y-94000000D02*
X161000000Y-95500000D01*
X161000000Y-95500000D02*
X161000000Y-96500000D01*
X161000000Y-96500000D02*
X161500000Y-97000000D01*
X134500000Y-92500000D02*
X136000000Y-92500000D01*
X136500000Y-93000000D02*
X138500000Y-93000000D01*
X136000000Y-92500000D02*
X136500000Y-93000000D01*
X134500000Y-93500000D02*
X136000000Y-93500000D01*
X136000000Y-93500000D02*
X136500000Y-93000000D01*
X138500000Y-92250000D02*
X138750000Y-92000000D01*
X138500000Y-93000000D02*
X138500000Y-92250000D01*
X138750000Y-92000000D02*
X141000000Y-92000000D01*
X141000000Y-92000000D02*
X141500000Y-91500000D01*
X141500000Y-91500000D02*
X141500000Y-87500000D01*
X137000000Y-87500000D02*
X138500000Y-87500000D01*
X143000000Y-95500000D02*
X161000000Y-95500000D01*
X141500000Y-94000000D02*
X143000000Y-95500000D01*
X141000000Y-92000000D02*
X141500000Y-92500000D01*
X141500000Y-92500000D02*
X141500000Y-94000000D01*
X162500000Y-88000000D02*
X164000000Y-88000000D01*
X159500000Y-92500000D02*
X160000000Y-93000000D01*
X160000000Y-93000000D02*
X161000000Y-94000000D01*
X163335002Y-97000000D02*
X164800000Y-95535002D01*
X162900000Y-97000000D02*
X163335002Y-97000000D01*
X161500000Y-97000000D02*
X162900000Y-97000000D01*
X164800000Y-95535002D02*
X164735002Y-95535002D01*
X164735002Y-95535002D02*
X164400000Y-95200000D01*
X164400000Y-95200000D02*
X164400000Y-94700000D01*
X164600000Y-94500000D02*
X165099990Y-94500000D01*
X164400000Y-94700000D02*
X164600000Y-94500000D01*
X164735002Y-95535002D02*
X165099990Y-95535002D01*
G04 #@! TO.N,Net-(A1-Pad4A)*
X142500000Y-92500000D02*
X146250000Y-92500000D01*
G04 #@! TO.N,Net-(A1-Pad5A)*
X146250000Y-88500000D02*
X143750000Y-88500000D01*
X143750000Y-88500000D02*
X140250000Y-85000000D01*
X140250000Y-85000000D02*
X137000000Y-85000000D01*
X137000000Y-85000000D02*
X136000000Y-86000000D01*
X136000000Y-88800000D02*
X136000000Y-90000000D01*
X136000000Y-86000000D02*
X136000000Y-88800000D01*
X135500000Y-90500000D02*
X134900010Y-90500000D01*
X136000000Y-90000000D02*
X135500000Y-90500000D01*
G04 #@! TO.N,Net-(A1-Pad6A)*
X138000000Y-90000000D02*
X137000000Y-90000000D01*
X135500000Y-91500000D02*
X134500000Y-91500000D01*
X137000000Y-90000000D02*
X135500000Y-91500000D01*
G04 #@! TO.N,Net-(A1-Pad10A)*
X138000000Y-95500000D02*
X134500000Y-95500000D01*
G04 #@! TO.N,Net-(A1-Pad3B)*
X163065685Y-92500000D02*
X162500000Y-92500000D01*
X161934315Y-92500000D02*
X162500000Y-92500000D01*
X161164998Y-92500000D02*
X161934315Y-92500000D01*
X160164998Y-91500000D02*
X161164998Y-92500000D01*
X154750000Y-91500000D02*
X160164998Y-91500000D01*
X163200000Y-92500000D02*
X163500000Y-92500000D01*
X163200000Y-92500000D02*
X163065685Y-92500000D01*
X164500000Y-93500000D02*
X165099990Y-93500000D01*
X163500000Y-92500000D02*
X164500000Y-93500000D01*
G04 #@! TO.N,Net-(A1-Pad4B)*
X157250000Y-89500000D02*
X154750000Y-89500000D01*
X157325001Y-89424999D02*
X157250000Y-89500000D01*
X151000000Y-93000000D02*
X151000000Y-90000000D01*
X151000000Y-90000000D02*
X151500000Y-89500000D01*
X151500000Y-89500000D02*
X154750000Y-89500000D01*
X163400000Y-89424999D02*
X163824999Y-89424999D01*
X163400000Y-89424999D02*
X157325001Y-89424999D01*
X163900000Y-89500000D02*
X165099990Y-89500000D01*
X163824999Y-89424999D02*
X163900000Y-89500000D01*
G04 #@! TO.N,Net-(A1-Pad6B)*
X163000000Y-93500000D02*
X163000000Y-95500000D01*
X149000000Y-91500000D02*
X146250000Y-91500000D01*
X149500000Y-92000000D02*
X149000000Y-91500000D01*
X149000000Y-91500000D02*
X149500000Y-91000000D01*
X149500000Y-91000000D02*
X149500000Y-90000000D01*
X149500000Y-90000000D02*
X149000000Y-89500000D01*
X149000000Y-89500000D02*
X146250000Y-89500000D01*
X150000000Y-94000000D02*
X149500000Y-93500000D01*
X156000000Y-94000000D02*
X150000000Y-94000000D01*
X149500000Y-93500000D02*
X149500000Y-92000000D01*
X163750000Y-90500000D02*
X164100000Y-90850000D01*
X163000000Y-90500000D02*
X163750000Y-90500000D01*
X164100000Y-90850000D02*
X164100000Y-91800000D01*
G04 #@! TO.N,Net-(A1-Pad9B)*
X157250000Y-88500000D02*
X160250000Y-85500000D01*
X154750000Y-88500000D02*
X157250000Y-88500000D01*
X162200000Y-85500000D02*
X162600000Y-85500000D01*
X160250000Y-85500000D02*
X162200000Y-85500000D01*
X164600000Y-87500000D02*
X165099990Y-87500000D01*
X162600000Y-85500000D02*
X164600000Y-87500000D01*
G04 #@! TO.N,Net-(HL1-Pad1)*
X140000000Y-95500000D02*
X140000000Y-93000000D01*
G04 #@! TO.N,Net-(HL2-Pad1)*
X140000000Y-90000000D02*
X140000000Y-87500000D01*
G04 #@! TO.N,Net-(HL3-Pad1)*
X161000000Y-90500000D02*
X159000000Y-90500000D01*
X159000000Y-88000000D02*
X161000000Y-88000000D01*
G04 #@! TD*
M02*
