M48
;DRILL file {KiCad (5.0.0)} date 03/20/19 16:37:47
;FORMAT={3:3/ absolute / metric / keep zeros}
FMAT,2
METRIC,TZ
T1C0.400
T2C0.600
%
G90
G05
M71
T1
X161500Y-049175
X168000Y-054000
X183000Y-054500
X183000Y-059035
X188000Y-054500
X188500Y-059000
T2
X160500Y-050000
X160500Y-051000
X160500Y-052000
X160500Y-053000
X160500Y-054000
X160500Y-055000
X160500Y-056000
X160500Y-057000
X160500Y-058000
X160500Y-059000
X191500Y-050000
X191500Y-051000
X191500Y-052000
X191500Y-053000
X191500Y-054000
X191500Y-055000
X191500Y-056000
X191500Y-057000
X191500Y-058000
X191500Y-059000
T0
M30
