G04 #@! TF.GenerationSoftware,KiCad,Pcbnew,(5.0.0)*
G04 #@! TF.CreationDate,2019-03-20T16:37:46+03:00*
G04 #@! TF.ProjectId,can_adapter,63616E5F616461707465722E6B696361,rev?*
G04 #@! TF.SameCoordinates,Original*
G04 #@! TF.FileFunction,Copper,L1,Top,Signal*
G04 #@! TF.FilePolarity,Positive*
%FSLAX46Y46*%
G04 Gerber Fmt 4.6, Leading zero omitted, Abs format (unit mm)*
G04 Created by KiCad (PCBNEW (5.0.0)) date 03/20/19 16:37:46*
%MOMM*%
%LPD*%
G01*
G04 APERTURE LIST*
G04 #@! TA.AperFunction,NonConductor*
%ADD10C,0.300000*%
G04 #@! TD*
G04 #@! TA.AperFunction,ComponentPad*
%ADD11C,0.800000*%
G04 #@! TD*
G04 #@! TA.AperFunction,SMDPad,CuDef*
%ADD12R,2.350000X0.650000*%
G04 #@! TD*
G04 #@! TA.AperFunction,SMDPad,CuDef*
%ADD13R,1.000000X1.000000*%
G04 #@! TD*
G04 #@! TA.AperFunction,SMDPad,CuDef*
%ADD14R,1.000000X1.500000*%
G04 #@! TD*
G04 #@! TA.AperFunction,ViaPad*
%ADD15C,0.800000*%
G04 #@! TD*
G04 #@! TA.AperFunction,Conductor*
%ADD16C,0.250000*%
G04 #@! TD*
G04 APERTURE END LIST*
D10*
X174892857Y-51178571D02*
X174750000Y-51107142D01*
X174678571Y-51035714D01*
X174607142Y-50892857D01*
X174607142Y-50464285D01*
X174678571Y-50321428D01*
X174750000Y-50250000D01*
X174892857Y-50178571D01*
X175107142Y-50178571D01*
X175250000Y-50250000D01*
X175321428Y-50321428D01*
X175392857Y-50464285D01*
X175392857Y-50892857D01*
X175321428Y-51035714D01*
X175250000Y-51107142D01*
X175107142Y-51178571D01*
X174892857Y-51178571D01*
D11*
G04 #@! TO.P,A1,10B*
G04 #@! TO.N,Net-(A1-Pad10B)*
X191500000Y-50000000D03*
G04 #@! TO.P,A1,9B*
G04 #@! TO.N,Net-(A1-Pad8B)*
X191500000Y-51000000D03*
G04 #@! TO.P,A1,8B*
X191500000Y-52000000D03*
G04 #@! TO.P,A1,7B*
G04 #@! TO.N,Net-(A1-Pad7B)*
X191500000Y-53000000D03*
G04 #@! TO.P,A1,6B*
G04 #@! TO.N,Net-(A1-Pad6B)*
X191500000Y-54000000D03*
G04 #@! TO.P,A1,5B*
G04 #@! TO.N,Net-(A1-Pad5B)*
X191500000Y-55000000D03*
G04 #@! TO.P,A1,4B*
G04 #@! TO.N,Net-(A1-Pad4B)*
X191500000Y-56000000D03*
G04 #@! TO.P,A1,3B*
G04 #@! TO.N,Net-(A1-Pad2B)*
X191500000Y-57000000D03*
G04 #@! TO.P,A1,2B*
X191500000Y-58000000D03*
G04 #@! TO.P,A1,10A*
G04 #@! TO.N,Net-(A1-Pad10A)*
X160500000Y-59000000D03*
G04 #@! TO.P,A1,9A*
G04 #@! TO.N,Net-(A1-Pad9A)*
X160500000Y-58000000D03*
G04 #@! TO.P,A1,8A*
G04 #@! TO.N,Net-(A1-Pad7A)*
X160500000Y-57000000D03*
G04 #@! TO.P,A1,7A*
X160500000Y-56000000D03*
G04 #@! TO.P,A1,6A*
G04 #@! TO.N,Net-(A1-Pad6A)*
X160500000Y-55000000D03*
G04 #@! TO.P,A1,5A*
G04 #@! TO.N,Net-(A1-Pad5A)*
X160500000Y-54000000D03*
G04 #@! TO.P,A1,4A*
G04 #@! TO.N,Net-(A1-Pad4A)*
X160500000Y-53000000D03*
G04 #@! TO.P,A1,3A*
G04 #@! TO.N,Net-(A1-Pad2A)*
X160500000Y-52000000D03*
G04 #@! TO.P,A1,2A*
X160500000Y-51000000D03*
G04 #@! TO.P,A1,1B*
G04 #@! TO.N,Net-(A1-Pad1B)*
X191500000Y-59000000D03*
G04 #@! TO.P,A1,1A*
G04 #@! TO.N,Net-(A1-Pad1A)*
X160500000Y-50000000D03*
G04 #@! TD*
D12*
G04 #@! TO.P,DD1,8*
G04 #@! TO.N,Net-(A1-Pad8B)*
X181050000Y-50690000D03*
G04 #@! TO.P,DD1,7*
G04 #@! TO.N,Net-(A1-Pad7B)*
X181050000Y-53230000D03*
G04 #@! TO.P,DD1,6*
G04 #@! TO.N,Net-(A1-Pad6B)*
X181050000Y-55770000D03*
G04 #@! TO.P,DD1,5*
G04 #@! TO.N,Net-(A1-Pad2B)*
X181050000Y-58310000D03*
G04 #@! TO.P,DD1,4*
G04 #@! TO.N,Net-(A1-Pad7A)*
X171950000Y-58310000D03*
G04 #@! TO.P,DD1,3*
G04 #@! TO.N,Net-(A1-Pad4A)*
X171950000Y-55770000D03*
G04 #@! TO.P,DD1,2*
G04 #@! TO.N,Net-(A1-Pad5A)*
X171950000Y-53230000D03*
G04 #@! TO.P,DD1,1*
G04 #@! TO.N,Net-(A1-Pad2A)*
X171950000Y-50690000D03*
G04 #@! TD*
D13*
G04 #@! TO.P,HL1,2*
G04 #@! TO.N,Net-(A1-Pad7A)*
X169000000Y-59000000D03*
G04 #@! TO.P,HL1,1*
G04 #@! TO.N,Net-(HL1-Pad1)*
X167500000Y-59000000D03*
G04 #@! TD*
G04 #@! TO.P,HL2,1*
G04 #@! TO.N,Net-(HL2-Pad1)*
X167500000Y-50000000D03*
G04 #@! TO.P,HL2,2*
G04 #@! TO.N,Net-(A1-Pad7A)*
X169000000Y-50000000D03*
G04 #@! TD*
G04 #@! TO.P,HL3,1*
G04 #@! TO.N,Net-(HL3-Pad1)*
X184500000Y-54500000D03*
G04 #@! TO.P,HL3,2*
G04 #@! TO.N,Net-(A1-Pad5B)*
X186000000Y-54500000D03*
G04 #@! TD*
D14*
G04 #@! TO.P,R1,2*
G04 #@! TO.N,Net-(A1-Pad10A)*
X162500000Y-59000000D03*
G04 #@! TO.P,R1,1*
G04 #@! TO.N,Net-(HL1-Pad1)*
X164500000Y-59000000D03*
G04 #@! TD*
G04 #@! TO.P,R2,1*
G04 #@! TO.N,Net-(HL2-Pad1)*
X164500000Y-50000000D03*
G04 #@! TO.P,R2,2*
G04 #@! TO.N,Net-(A1-Pad6A)*
X162500000Y-50000000D03*
G04 #@! TD*
G04 #@! TO.P,R3,2*
G04 #@! TO.N,Net-(HL3-Pad1)*
X184500000Y-59000000D03*
G04 #@! TO.P,R3,1*
G04 #@! TO.N,Net-(A1-Pad4B)*
X186500000Y-59000000D03*
G04 #@! TD*
D15*
G04 #@! TO.N,Net-(A1-Pad5A)*
X168000000Y-54000000D03*
G04 #@! TO.N,Net-(A1-Pad5B)*
X188000000Y-54500000D03*
G04 #@! TO.N,Net-(A1-Pad4B)*
X188500000Y-59000000D03*
G04 #@! TO.N,Net-(A1-Pad6A)*
X161500000Y-49175000D03*
G04 #@! TO.N,Net-(HL3-Pad1)*
X183000000Y-59035000D03*
X183000000Y-54500000D03*
G04 #@! TD*
D16*
G04 #@! TO.N,*
X168499999Y-57500000D02*
X168000000Y-57999999D01*
X168000000Y-57999999D02*
X168000000Y-57000001D01*
X168000000Y-57000001D02*
X168499999Y-57500000D01*
X168499999Y-57500000D02*
X169000000Y-57500000D01*
X167500001Y-57500000D02*
X168499999Y-57500000D01*
X185000000Y-52500001D02*
X185499999Y-53000000D01*
X185000000Y-53499999D02*
X185000000Y-52500001D01*
X185499999Y-53000000D02*
X185000000Y-53499999D01*
X185499999Y-53000000D02*
X186000000Y-53000000D01*
X184500001Y-53000000D02*
X185499999Y-53000000D01*
X160750000Y-49250000D02*
X160750000Y-48900010D01*
G04 #@! TO.N,Net-(A1-Pad2A)*
X160500000Y-52000000D02*
X166500000Y-52000000D01*
X166500000Y-52000000D02*
X167000000Y-51500000D01*
X169715000Y-51500000D02*
X168000000Y-51500000D01*
X170525000Y-50690000D02*
X169715000Y-51500000D01*
X171950000Y-50690000D02*
X170525000Y-50690000D01*
X167000000Y-51500000D02*
X168000000Y-51500000D01*
X166750000Y-51250000D02*
X167000000Y-51500000D01*
X161250000Y-51000000D02*
X161500000Y-51250000D01*
X160500000Y-51000000D02*
X161250000Y-51000000D01*
X166750000Y-51250000D02*
X161500000Y-51250000D01*
G04 #@! TO.N,Net-(A1-Pad5A)*
X171950000Y-53230000D02*
X168770000Y-53230000D01*
X168770000Y-53230000D02*
X168000000Y-54000000D01*
G04 #@! TO.N,Net-(A1-Pad4A)*
X160500000Y-53000000D02*
X165000000Y-53000000D01*
X167770000Y-55770000D02*
X171950000Y-55770000D01*
X165000000Y-53000000D02*
X167770000Y-55770000D01*
G04 #@! TO.N,Net-(A1-Pad7A)*
X160500000Y-56000000D02*
X164000000Y-56000000D01*
X164000000Y-57000000D02*
X164500000Y-56500000D01*
X160500000Y-57000000D02*
X164000000Y-57000000D01*
X164000000Y-56000000D02*
X164500000Y-56500000D01*
X164500000Y-56500000D02*
X165500000Y-56500000D01*
X168715000Y-56500000D02*
X165500000Y-56500000D01*
X170525000Y-58310000D02*
X168715000Y-56500000D01*
X171950000Y-58310000D02*
X170525000Y-58310000D01*
X169835000Y-59000000D02*
X170525000Y-58310000D01*
X169000000Y-59000000D02*
X169835000Y-59000000D01*
X169750000Y-50000000D02*
X170250000Y-49500000D01*
X169000000Y-50000000D02*
X169750000Y-50000000D01*
X170250000Y-49500000D02*
X176500000Y-49500000D01*
X176500000Y-49500000D02*
X177000000Y-50000000D01*
X177000000Y-50000000D02*
X177000000Y-58500000D01*
X177000000Y-58500000D02*
X176000000Y-59500000D01*
X170335000Y-59500000D02*
X169835000Y-59000000D01*
X176000000Y-59500000D02*
X170335000Y-59500000D01*
G04 #@! TO.N,Net-(A1-Pad2B)*
X191500000Y-57000000D02*
X188000000Y-57000000D01*
X188000000Y-58000000D02*
X187500000Y-57500000D01*
X191500000Y-58000000D02*
X188000000Y-58000000D01*
X188000000Y-57000000D02*
X187500000Y-57500000D01*
X183285000Y-57500000D02*
X186000000Y-57500000D01*
X182475000Y-58310000D02*
X183285000Y-57500000D01*
X181050000Y-58310000D02*
X182475000Y-58310000D01*
X187500000Y-57500000D02*
X186000000Y-57500000D01*
G04 #@! TO.N,Net-(A1-Pad6B)*
X190770000Y-54000000D02*
X189000000Y-55770000D01*
X191500000Y-54000000D02*
X190770000Y-54000000D01*
X181050000Y-55770000D02*
X189000000Y-55770000D01*
G04 #@! TO.N,Net-(A1-Pad7B)*
X191500000Y-53000000D02*
X188250000Y-53000000D01*
X188250000Y-53000000D02*
X187200010Y-51950010D01*
X184529990Y-51950010D02*
X183250000Y-53230000D01*
X187200010Y-51950010D02*
X184529990Y-51950010D01*
X181050000Y-53230000D02*
X183250000Y-53230000D01*
G04 #@! TO.N,Net-(A1-Pad8B)*
X191500000Y-52000000D02*
X189000000Y-52000000D01*
X189000000Y-51000000D02*
X188500000Y-51500000D01*
X191500000Y-51000000D02*
X189000000Y-51000000D01*
X189000000Y-52000000D02*
X188500000Y-51500000D01*
X183810000Y-51500000D02*
X183000000Y-50690000D01*
X188500000Y-51500000D02*
X183810000Y-51500000D01*
X183000000Y-50690000D02*
X181050000Y-50690000D01*
G04 #@! TO.N,Net-(A1-Pad5B)*
X188000000Y-54500000D02*
X186000000Y-54500000D01*
G04 #@! TO.N,Net-(A1-Pad4B)*
X188500000Y-59000000D02*
X186500000Y-59000000D01*
G04 #@! TO.N,Net-(A1-Pad10A)*
X162500000Y-59000000D02*
X160500000Y-59000000D01*
G04 #@! TO.N,Net-(A1-Pad6A)*
X161750000Y-50000000D02*
X162500000Y-50000000D01*
X161500000Y-49175000D02*
X161500000Y-49750000D01*
X161500000Y-49750000D02*
X161750000Y-50000000D01*
G04 #@! TO.N,Net-(HL1-Pad1)*
X164500000Y-59000000D02*
X167500000Y-59000000D01*
G04 #@! TO.N,Net-(HL2-Pad1)*
X164500000Y-50000000D02*
X167500000Y-50000000D01*
G04 #@! TO.N,Net-(HL3-Pad1)*
X184500000Y-59000000D02*
X183035000Y-59000000D01*
X183035000Y-59000000D02*
X183000000Y-59035000D01*
X183000000Y-54500000D02*
X184500000Y-54500000D01*
G04 #@! TD*
M02*
